<svg width="50" height="50" viewBox="0 0 50 50" fill="none" xmlns="http://www.w3.org/2000/svg">
<path d="M8.3335 39.5834V20.8334C8.3335 20.1737 8.48141 19.5487 8.77725 18.9584C9.07308 18.3681 9.48072 17.882 10.0002 17.5001L22.5002 8.12508C23.2293 7.56953 24.0627 7.29175 25.0002 7.29175C25.9377 7.29175 26.771 7.56953 27.5002 8.12508L40.0002 17.5001C40.521 17.882 40.9293 18.3681 41.2252 18.9584C41.521 19.5487 41.6682 20.1737 41.6668 20.8334V39.5834C41.6668 40.7292 41.2585 41.7105 40.4418 42.5272C39.6252 43.3438 38.6446 43.7515 37.5002 43.7501H31.2502C30.6599 43.7501 30.1654 43.5501 29.7668 43.1501C29.3682 42.7501 29.1682 42.2556 29.1668 41.6667V31.2501C29.1668 30.6598 28.9668 30.1654 28.5668 29.7667C28.1668 29.3681 27.6724 29.1681 27.0835 29.1667H22.9168C22.3266 29.1667 21.8321 29.3667 21.4335 29.7667C21.0349 30.1667 20.8349 30.6612 20.8335 31.2501V41.6667C20.8335 42.257 20.6335 42.7522 20.2335 43.1522C19.8335 43.5522 19.3391 43.7515 18.7502 43.7501H12.5002C11.3543 43.7501 10.3738 43.3424 9.5585 42.5272C8.74322 41.7119 8.33488 40.7306 8.3335 39.5834Z" fill="black"/>
</svg>
