<svg width="50" height="50" viewBox="0 0 50 50" fill="none" xmlns="http://www.w3.org/2000/svg">
<path d="M8.33301 39.5832V20.8332C8.33301 20.1734 8.48092 19.5484 8.77676 18.9582C9.07259 18.3679 9.48023 17.8818 9.99967 17.4998L22.4997 8.12484C23.2288 7.56928 24.0622 7.2915 24.9997 7.2915C25.9372 7.2915 26.7705 7.56928 27.4997 8.12484L39.9997 17.4998C40.5205 17.8818 40.9288 18.3679 41.2247 18.9582C41.5205 19.5484 41.6677 20.1734 41.6663 20.8332V39.5832C41.6663 40.729 41.258 41.7103 40.4413 42.5269C39.6247 43.3436 38.6441 43.7512 37.4997 43.7498H31.2497C30.6594 43.7498 30.165 43.5498 29.7663 43.1498C29.3677 42.7498 29.1677 42.2554 29.1663 41.6665V31.2498C29.1663 30.6596 28.9663 30.1651 28.5663 29.7665C28.1663 29.3679 27.6719 29.1679 27.083 29.1665H22.9163C22.3261 29.1665 21.8316 29.3665 21.433 29.7665C21.0344 30.1665 20.8344 30.6609 20.833 31.2498V41.6665C20.833 42.2568 20.633 42.7519 20.233 43.1519C19.833 43.5519 19.3386 43.7512 18.7497 43.7498H12.4997C11.3538 43.7498 10.3733 43.3422 9.55801 42.5269C8.74273 41.7116 8.3344 40.7304 8.33301 39.5832Z" fill="black"/>
</svg>
