<svg width="46" height="49" viewBox="0 0 46 49" fill="none" xmlns="http://www.w3.org/2000/svg">
<path fill-rule="evenodd" clip-rule="evenodd" d="M31.2497 17.6389C31.2497 19.978 30.3717 22.2212 28.8089 23.8752C27.2461 25.5292 25.1265 26.4583 22.9163 26.4583C20.7062 26.4583 18.5866 25.5292 17.0238 23.8752C15.461 22.2212 14.583 19.978 14.583 17.6389C14.583 15.2998 15.461 13.0566 17.0238 11.4026C18.5866 9.74865 20.7062 8.81946 22.9163 8.81946C25.1265 8.81946 27.2461 9.74865 28.8089 11.4026C30.3717 13.0566 31.2497 15.2998 31.2497 17.6389ZM27.083 17.6389C27.083 18.8084 26.644 19.9301 25.8626 20.757C25.0812 21.584 24.0214 22.0486 22.9163 22.0486C21.8113 22.0486 20.7515 21.584 19.9701 20.757C19.1887 19.9301 18.7497 18.8084 18.7497 17.6389C18.7497 16.4694 19.1887 15.3477 19.9701 14.5208C20.7515 13.6938 21.8113 13.2292 22.9163 13.2292C24.0214 13.2292 25.0812 13.6938 25.8626 14.5208C26.644 15.3477 27.083 16.4694 27.083 17.6389Z" fill="black"/>
<path fill-rule="evenodd" clip-rule="evenodd" d="M22.9167 0C10.2604 0 0 10.8589 0 24.2535C0 37.648 10.2604 48.5069 22.9167 48.5069C35.5729 48.5069 45.8333 37.648 45.8333 24.2535C45.8333 10.8589 35.5729 0 22.9167 0ZM4.16667 24.2535C4.16667 28.8616 5.65208 33.1038 8.14167 36.4728C9.8905 34.0433 12.1462 32.0744 14.7326 30.7197C17.319 29.365 20.1662 28.6612 23.0521 28.6632C25.9008 28.6597 28.7126 29.3447 31.2732 30.666C33.8337 31.9874 36.0753 33.9101 37.8271 36.2876C39.6322 33.782 40.8476 30.8575 41.3727 27.7561C41.8978 24.6547 41.7176 21.4655 40.8469 18.4524C39.9762 15.4394 38.44 12.6891 36.3656 10.4291C34.2911 8.16907 31.738 6.46434 28.9175 5.45595C26.0969 4.44755 23.09 4.16448 20.1455 4.63015C17.2011 5.09582 14.4037 6.29684 11.9849 8.13385C9.56614 9.97086 7.59544 12.391 6.23589 15.1941C4.87635 17.9972 4.16704 21.1027 4.16667 24.2535ZM22.9167 44.0972C18.6123 44.1046 14.4378 42.5374 11.1 39.661C12.4434 37.6251 14.2317 35.9628 16.3127 34.8158C18.3937 33.6687 20.7057 33.0708 23.0521 33.0729C25.3691 33.0708 27.6532 33.6538 29.7146 34.7735C31.7759 35.8933 33.555 37.5175 34.9042 39.5111C31.5406 42.4811 27.2972 44.1045 22.9167 44.0972Z" fill="black"/>
</svg>
