<svg width="50" height="50" viewBox="0 0 50 50" fill="none" xmlns="http://www.w3.org/2000/svg">
<path d="M8.33301 39.5834V20.8334C8.33301 20.1737 8.48092 19.5487 8.77676 18.9584C9.07259 18.3681 9.48023 17.882 9.99967 17.5001L22.4997 8.12508C23.2288 7.56953 24.0622 7.29175 24.9997 7.29175C25.9372 7.29175 26.7705 7.56953 27.4997 8.12508L39.9997 17.5001C40.5205 17.882 40.9288 18.3681 41.2247 18.9584C41.5205 19.5487 41.6677 20.1737 41.6663 20.8334V39.5834C41.6663 40.7292 41.258 41.7105 40.4413 42.5272C39.6247 43.3438 38.6441 43.7515 37.4997 43.7501H31.2497C30.6594 43.7501 30.165 43.5501 29.7663 43.1501C29.3677 42.7501 29.1677 42.2556 29.1663 41.6667V31.2501C29.1663 30.6598 28.9663 30.1654 28.5663 29.7667C28.1663 29.3681 27.6719 29.1681 27.083 29.1667H22.9163C22.3261 29.1667 21.8316 29.3667 21.433 29.7667C21.0344 30.1667 20.8344 30.6612 20.833 31.2501V41.6667C20.833 42.257 20.633 42.7522 20.233 43.1522C19.833 43.5522 19.3386 43.7515 18.7497 43.7501H12.4997C11.3538 43.7501 10.3733 43.3424 9.55801 42.5272C8.74273 41.7119 8.3344 40.7306 8.33301 39.5834Z" fill="black"/>
</svg>
