<svg width="46" height="50" viewBox="0 0 46 50" fill="none" xmlns="http://www.w3.org/2000/svg">
<path fill-rule="evenodd" clip-rule="evenodd" d="M31.2497 18.0556C31.2497 20.4499 30.3717 22.7462 28.8089 24.4392C27.2461 26.1322 25.1265 27.0834 22.9163 27.0834C20.7062 27.0834 18.5866 26.1322 17.0238 24.4392C15.461 22.7462 14.583 20.4499 14.583 18.0556C14.583 15.6613 15.461 13.365 17.0238 11.672C18.5866 9.97897 20.7062 9.02783 22.9163 9.02783C25.1265 9.02783 27.2461 9.97897 28.8089 11.672C30.3717 13.365 31.2497 15.6613 31.2497 18.0556ZM27.083 18.0556C27.083 19.2528 26.644 20.4009 25.8626 21.2474C25.0812 22.0939 24.0214 22.5695 22.9163 22.5695C21.8113 22.5695 20.7515 22.0939 19.9701 21.2474C19.1887 20.4009 18.7497 19.2528 18.7497 18.0556C18.7497 16.8585 19.1887 15.7103 19.9701 14.8638C20.7515 14.0173 21.8113 13.5417 22.9163 13.5417C24.0214 13.5417 25.0812 14.0173 25.8626 14.8638C26.644 15.7103 27.083 16.8585 27.083 18.0556Z" fill="black"/>
<path fill-rule="evenodd" clip-rule="evenodd" d="M22.9167 0C10.2604 0 0 11.1155 0 24.8264C0 38.5373 10.2604 49.6528 22.9167 49.6528C35.5729 49.6528 45.8333 38.5373 45.8333 24.8264C45.8333 11.1155 35.5729 0 22.9167 0ZM4.16667 24.8264C4.16667 29.5434 5.65208 33.8858 8.14167 37.3344C9.8905 34.8475 12.1462 32.8321 14.7326 31.4454C17.319 30.0587 20.1662 29.3383 23.0521 29.3403C25.9008 29.3367 28.7126 30.0379 31.2732 31.3904C33.8337 32.743 36.0753 34.7111 37.8271 37.1448C39.6322 34.58 40.8476 31.5864 41.3727 28.4117C41.8978 25.2371 41.7176 21.9726 40.8469 18.8883C39.9762 15.8041 38.44 12.9888 36.3656 10.6754C34.2911 8.36204 31.738 6.61704 28.9175 5.58483C26.0969 4.55261 23.09 4.26285 20.1455 4.73952C17.2011 5.21619 14.4037 6.44559 11.9849 8.32599C9.56614 10.2064 7.59544 12.6837 6.23589 15.553C4.87635 18.4224 4.16704 21.6011 4.16667 24.8264ZM22.9167 45.1389C18.6123 45.1464 14.4378 43.5422 11.1 40.5979C12.4434 38.5139 14.2317 36.8124 16.3127 35.6382C18.3937 34.464 20.7057 33.852 23.0521 33.8542C25.3691 33.852 27.6532 34.4488 29.7146 35.595C31.7759 36.7412 33.555 38.4037 34.9042 40.4444C31.5406 43.4846 27.2972 45.1463 22.9167 45.1389Z" fill="black"/>
</svg>
