<svg width="48" height="48" viewBox="0 0 48 48" fill="none" xmlns="http://www.w3.org/2000/svg">
<path d="M34.5 10.5H13.5C6.05625 10.5 0 16.5562 0 24C0 31.4438 6.05625 37.5 13.5 37.5H34.5C41.9437 37.5 48 31.4438 48 24C48 16.5562 41.9437 10.5 34.5 10.5ZM34.5 34.5C32.4233 34.5 30.3932 33.8842 28.6665 32.7304C26.9398 31.5767 25.594 29.9368 24.7993 28.0182C24.0045 26.0996 23.7966 23.9884 24.2018 21.9516C24.6069 19.9148 25.6069 18.0438 27.0754 16.5754C28.5438 15.1069 30.4147 14.1069 32.4515 13.7018C34.4883 13.2966 36.5996 13.5045 38.5182 14.2993C40.4368 15.094 42.0767 16.4398 43.2304 18.1665C44.3842 19.8932 45 21.9233 45 24C44.997 26.7839 43.8898 29.4528 41.9213 31.4213C39.9528 33.3898 37.2839 34.497 34.5 34.5Z" fill="black"/>
</svg>
