<svg width="46" height="49" viewBox="0 0 46 49" fill="none" xmlns="http://www.w3.org/2000/svg">
<path fill-rule="evenodd" clip-rule="evenodd" d="M31.2497 17.5C31.2497 19.8206 30.3717 22.0462 28.8089 23.6872C27.2461 25.3281 25.1265 26.25 22.9163 26.25C20.7062 26.25 18.5866 25.3281 17.0238 23.6872C15.461 22.0462 14.583 19.8206 14.583 17.5C14.583 15.1794 15.461 12.9538 17.0238 11.3128C18.5866 9.67187 20.7062 8.75 22.9163 8.75C25.1265 8.75 27.2461 9.67187 28.8089 11.3128C30.3717 12.9538 31.2497 15.1794 31.2497 17.5ZM27.083 17.5C27.083 18.6603 26.644 19.7731 25.8626 20.5936C25.0812 21.4141 24.0214 21.875 22.9163 21.875C21.8113 21.875 20.7515 21.4141 19.9701 20.5936C19.1887 19.7731 18.7497 18.6603 18.7497 17.5C18.7497 16.3397 19.1887 15.2269 19.9701 14.4064C20.7515 13.5859 21.8113 13.125 22.9163 13.125C24.0214 13.125 25.0812 13.5859 25.8626 14.4064C26.644 15.2269 27.083 16.3397 27.083 17.5Z" fill="black"/>
<path fill-rule="evenodd" clip-rule="evenodd" d="M22.9167 0C10.2604 0 0 10.7734 0 24.0625C0 37.3516 10.2604 48.125 22.9167 48.125C35.5729 48.125 45.8333 37.3516 45.8333 24.0625C45.8333 10.7734 35.5729 0 22.9167 0ZM4.16667 24.0625C4.16667 28.6344 5.65208 32.8431 8.14167 36.1856C9.8905 33.7753 12.1462 31.8219 14.7326 30.4778C17.319 29.1338 20.1662 28.4355 23.0521 28.4375C25.9008 28.434 28.7126 29.1136 31.2732 30.4246C33.8337 31.7355 36.0753 33.6431 37.8271 36.0019C39.6322 33.516 40.8476 30.6145 41.3727 27.5375C41.8978 24.4605 41.7176 21.2965 40.8469 18.3072C39.9762 15.3178 38.44 12.5892 36.3656 10.347C34.2911 8.10475 31.738 6.41344 28.9175 5.41299C26.0969 4.41253 23.09 4.13169 20.1455 4.59369C17.2011 5.05569 14.4037 6.24726 11.9849 8.0698C9.56614 9.89235 7.59544 12.2935 6.23589 15.0745C4.87635 17.8555 4.16704 20.9365 4.16667 24.0625ZM22.9167 43.75C18.6123 43.7573 14.4378 42.2025 11.1 39.3488C12.4434 37.3288 14.2317 35.6797 16.3127 34.5416C18.3937 33.4036 20.7057 32.8104 23.0521 32.8125C25.3691 32.8104 27.6532 33.3888 29.7146 34.4997C31.7759 35.6107 33.555 37.2221 34.9042 39.2C31.5406 42.1466 27.2972 43.7572 22.9167 43.75Z" fill="black"/>
</svg>
