<svg width="50" height="50" viewBox="0 0 50 50" fill="none" xmlns="http://www.w3.org/2000/svg">
<path d="M8.3335 39.5832V20.8332C8.3335 20.1734 8.48141 19.5484 8.77725 18.9582C9.07308 18.3679 9.48072 17.8818 10.0002 17.4998L22.5002 8.12484C23.2293 7.56928 24.0627 7.2915 25.0002 7.2915C25.9377 7.2915 26.771 7.56928 27.5002 8.12484L40.0002 17.4998C40.521 17.8818 40.9293 18.3679 41.2252 18.9582C41.521 19.5484 41.6682 20.1734 41.6668 20.8332V39.5832C41.6668 40.729 41.2585 41.7103 40.4418 42.5269C39.6252 43.3436 38.6446 43.7512 37.5002 43.7498H31.2502C30.6599 43.7498 30.1654 43.5498 29.7668 43.1498C29.3682 42.7498 29.1682 42.2554 29.1668 41.6665V31.2498C29.1668 30.6596 28.9668 30.1651 28.5668 29.7665C28.1668 29.3679 27.6724 29.1679 27.0835 29.1665H22.9168C22.3266 29.1665 21.8321 29.3665 21.4335 29.7665C21.0349 30.1665 20.8349 30.6609 20.8335 31.2498V41.6665C20.8335 42.2568 20.6335 42.7519 20.2335 43.1519C19.8335 43.5519 19.3391 43.7512 18.7502 43.7498H12.5002C11.3543 43.7498 10.3738 43.3422 9.5585 42.5269C8.74322 41.7116 8.33488 40.7304 8.3335 39.5832Z" fill="black"/>
</svg>
