<svg width="25" height="25" viewBox="0 0 25 25" fill="none" xmlns="http://www.w3.org/2000/svg">
<g filter="url(#filter0_f_44_12185)">
<path d="M2.08496 22.915C2.08496 24.0625 3.01758 25 4.16992 25H20.835C21.9824 25 22.9199 24.0674 22.9199 22.915V9.375H2.08496V22.915ZM17.71 12.5H19.7949V21.875H17.71V12.5ZM11.46 12.5H13.5449V21.875H11.46V12.5ZM5.20996 12.5H7.29492V21.875H5.20996V12.5ZM23.96 4.16504H17.71V2.08496C17.71 0.932617 16.7725 0 15.625 0H9.375C8.22754 0 7.29004 0.932617 7.29004 2.08496V4.16992H1.04004C0.463867 4.16504 0 4.63379 0 5.20996V6.25C0 6.82617 0.463867 7.29004 1.04004 7.29004H23.9551C24.5312 7.29004 24.9951 6.82617 24.9951 6.25V5.20996C25 4.63379 24.5361 4.16504 23.96 4.16504ZM15.625 4.16504H9.375V2.08496H15.625V4.16504Z" fill="black"/>
</g>
<defs>
<filter id="filter0_f_44_12185" x="-50" y="-50" width="124.995" height="125" filterUnits="userSpaceOnUse" color-interpolation-filters="sRGB">
<feFlood flood-opacity="0" result="BackgroundImageFix"/>
<feBlend mode="normal" in="SourceGraphic" in2="BackgroundImageFix" result="shape"/>
<feGaussianBlur stdDeviation="25" result="effect1_foregroundBlur_44_12185"/>
</filter>
</defs>
</svg>
