<svg width="50" height="50" viewBox="0 0 50 50" fill="none" xmlns="http://www.w3.org/2000/svg">
<path d="M10.4163 47.9168H39.583M16.1601 11.9939L20.5809 16.4147M20.5809 16.4147C21.753 15.2426 23.3421 14.5835 24.9997 14.5835M20.5809 16.4147C19.4088 17.5868 18.7497 19.1759 18.7497 20.8335M18.7497 20.8335H12.4997M18.7497 20.8335C18.7497 22.4911 19.4088 24.0801 20.5809 25.2522M20.5809 25.2522L16.1601 29.6731M20.5809 25.2522C21.753 26.4243 23.3421 27.0835 24.9997 27.0835M24.9997 27.0835V33.3335M24.9997 27.0835C26.6573 27.0835 28.2463 26.4243 29.4184 25.2522M29.4184 25.2522L33.8393 29.6731M29.4184 25.2522C30.5905 24.0801 31.2497 22.4911 31.2497 20.8335M37.4997 20.8335H31.2497M31.2497 20.8335C31.2497 19.1759 30.5905 17.5868 29.4184 16.4147M33.8393 11.9939L29.4184 16.4147M29.4184 16.4147C28.2463 15.2426 26.6573 14.5835 24.9997 14.5835M24.9997 14.5835V8.3335M2.08301 39.5835H47.9163V2.0835H2.08301V39.5835ZM16.6663 47.9168H33.333V39.5835H16.6663V47.9168Z" stroke="black" stroke-width="2"/>
</svg>
