<svg width="50" height="50" viewBox="0 0 50 50" fill="none" xmlns="http://www.w3.org/2000/svg">
<path d="M10.4168 47.9168H39.5835M16.1606 11.9939L20.5814 16.4147M20.5814 16.4147C21.7535 15.2426 23.3426 14.5835 25.0002 14.5835M20.5814 16.4147C19.4093 17.5868 18.7502 19.1759 18.7502 20.8335M18.7502 20.8335H12.5002M18.7502 20.8335C18.7502 22.4911 19.4093 24.0801 20.5814 25.2522M20.5814 25.2522L16.1606 29.6731M20.5814 25.2522C21.7535 26.4243 23.3426 27.0835 25.0002 27.0835M25.0002 27.0835V33.3335M25.0002 27.0835C26.6578 27.0835 28.2468 26.4243 29.4189 25.2522M29.4189 25.2522L33.8397 29.6731M29.4189 25.2522C30.591 24.0801 31.2502 22.4911 31.2502 20.8335M37.5002 20.8335H31.2502M31.2502 20.8335C31.2502 19.1759 30.591 17.5868 29.4189 16.4147M33.8397 11.9939L29.4189 16.4147M29.4189 16.4147C28.2468 15.2426 26.6578 14.5835 25.0002 14.5835M25.0002 14.5835V8.3335M2.0835 39.5835H47.9168V2.0835H2.0835V39.5835ZM16.6668 47.9168H33.3335V39.5835H16.6668V47.9168Z" stroke="black" stroke-width="2"/>
</svg>
