<svg width="46" height="51" viewBox="0 0 46 51" fill="none" xmlns="http://www.w3.org/2000/svg">
<path fill-rule="evenodd" clip-rule="evenodd" d="M31.2497 18.3953C31.2497 20.8346 30.3717 23.174 28.8089 24.8989C27.2461 26.6238 25.1265 27.5928 22.9163 27.5928C20.7062 27.5928 18.5866 26.6238 17.0238 24.8989C15.461 23.174 14.583 20.8346 14.583 18.3953C14.583 15.9559 15.461 13.6165 17.0238 11.8916C18.5866 10.1668 20.7062 9.19775 22.9163 9.19775C25.1265 9.19775 27.2461 10.1668 28.8089 11.8916C30.3717 13.6165 31.2497 15.9559 31.2497 18.3953ZM27.083 18.3953C27.083 19.615 26.644 20.7847 25.8626 21.6471C25.0812 22.5095 24.0214 22.9941 22.9163 22.9941C21.8113 22.9941 20.7515 22.5095 19.9701 21.6471C19.1887 20.7847 18.7497 19.615 18.7497 18.3953C18.7497 17.1756 19.1887 16.0059 19.9701 15.1435C20.7515 14.281 21.8113 13.7965 22.9163 13.7965C24.0214 13.7965 25.0812 14.281 25.8626 15.1435C26.644 16.0059 27.083 17.1756 27.083 18.3953Z" fill="black"/>
<path fill-rule="evenodd" clip-rule="evenodd" d="M22.9167 0C10.2604 0 0 11.3245 0 25.2932C0 39.262 10.2604 50.5864 22.9167 50.5864C35.5729 50.5864 45.8333 39.262 45.8333 25.2932C45.8333 11.3245 35.5729 0 22.9167 0ZM4.16667 25.2932C4.16667 30.0989 5.65208 34.5229 8.14167 38.0364C9.8905 35.5028 12.1462 33.4494 14.7326 32.0367C17.319 30.6239 20.1662 29.8899 23.0521 29.892C25.9008 29.8883 28.7126 30.6027 31.2732 31.9807C33.8337 33.3587 36.0753 35.3638 37.8271 37.8432C39.6322 35.2302 40.8476 32.1804 41.3727 28.946C41.8978 25.7116 41.7176 22.3857 40.8469 19.2435C39.9762 16.1013 38.44 13.2331 36.3656 10.8762C34.2912 8.51927 31.738 6.74147 28.9175 5.68984C26.0969 4.63822 23.09 4.34301 20.1455 4.82864C17.2011 5.31427 14.4037 6.56679 11.9849 8.48255C9.56614 10.3983 7.59544 12.9222 6.23589 15.8455C4.87635 18.7688 4.16704 22.0073 4.16667 25.2932ZM22.9167 45.9877C18.6123 45.9954 14.4378 44.361 11.1 41.3613C12.4434 39.2381 14.2317 37.5046 16.3127 36.3083C18.3937 35.1121 20.7057 34.4885 23.0521 34.4907C25.3691 34.4885 27.6532 35.0965 29.7145 36.2643C31.7759 37.432 33.555 39.1258 34.9042 41.2049C31.5406 44.3022 27.2972 45.9952 22.9167 45.9877Z" fill="black"/>
</svg>
