<svg width="46" height="46" viewBox="0 0 46 46" fill="none" xmlns="http://www.w3.org/2000/svg">
<path fill-rule="evenodd" clip-rule="evenodd" d="M31.2502 16.6667C31.2502 18.8768 30.3722 20.9964 28.8094 22.5592C27.2466 24.122 25.127 25 22.9168 25C20.7067 25 18.5871 24.122 17.0243 22.5592C15.4615 20.9964 14.5835 18.8768 14.5835 16.6667C14.5835 14.4565 15.4615 12.3369 17.0243 10.7741C18.5871 9.21132 20.7067 8.33334 22.9168 8.33334C25.127 8.33334 27.2466 9.21132 28.8094 10.7741C30.3722 12.3369 31.2502 14.4565 31.2502 16.6667ZM27.0835 16.6667C27.0835 17.7717 26.6445 18.8316 25.8631 19.613C25.0817 20.3944 24.0219 20.8333 22.9168 20.8333C21.8118 20.8333 20.752 20.3944 19.9706 19.613C19.1892 18.8316 18.7502 17.7717 18.7502 16.6667C18.7502 15.5616 19.1892 14.5018 19.9706 13.7204C20.752 12.939 21.8118 12.5 22.9168 12.5C24.0219 12.5 25.0817 12.939 25.8631 13.7204C26.6445 14.5018 27.0835 15.5616 27.0835 16.6667Z" fill="black"/>
<path fill-rule="evenodd" clip-rule="evenodd" d="M22.9167 0C10.2604 0 0 10.2604 0 22.9167C0 35.5729 10.2604 45.8333 22.9167 45.8333C35.5729 45.8333 45.8333 35.5729 45.8333 22.9167C45.8333 10.2604 35.5729 0 22.9167 0ZM4.16667 22.9167C4.16667 27.2708 5.65208 31.2792 8.14167 34.4625C9.8905 32.1669 12.1462 30.3065 14.7326 29.0265C17.319 27.7465 20.1662 27.0815 23.0521 27.0833C25.9008 27.08 28.7126 27.7273 31.2732 28.9758C33.8337 30.2243 36.0753 32.041 37.8271 34.2875C39.6322 31.92 40.8476 29.1567 41.3727 26.2262C41.8978 23.2958 41.7176 20.2824 40.8469 17.4354C39.9762 14.5884 38.44 11.9897 36.3656 9.85424C34.2911 7.71881 31.738 6.10804 28.9175 5.15523C26.0969 4.20241 23.09 3.93494 20.1455 4.37494C17.2011 4.81495 14.4037 5.94977 11.9849 7.68553C9.56614 9.42128 7.59544 11.7081 6.23589 14.3567C4.87635 17.0053 4.16704 19.9395 4.16667 22.9167ZM22.9167 41.6667C18.6123 41.6736 14.4378 40.1928 11.1 37.475C12.4434 35.5513 14.2317 33.9806 16.3127 32.8968C18.3937 31.8129 20.7057 31.248 23.0521 31.25C25.3691 31.248 27.6532 31.7989 29.7146 32.8569C31.7759 33.9149 33.555 35.4496 34.9042 37.3333C31.5406 40.1396 27.2972 41.6735 22.9167 41.6667Z" fill="black"/>
</svg>
