<svg width="38" height="38" viewBox="0 0 38 38" fill="none" xmlns="http://www.w3.org/2000/svg">
<path d="M18.75 37.5C14.375 37.5 10.5035 36.1722 7.13542 33.5167C3.76736 30.8611 1.57986 27.4667 0.572917 23.3333C0.434028 22.8125 0.538194 22.3354 0.885417 21.9021C1.23264 21.4688 1.70139 21.2167 2.29167 21.1458C2.84722 21.0764 3.35069 21.1806 3.80208 21.4583C4.25347 21.7361 4.56597 22.1528 4.73958 22.7083C5.57292 25.8333 7.29167 28.3854 9.89583 30.3646C12.5 32.3438 15.4514 33.3333 18.75 33.3333C22.8125 33.3333 26.259 31.9187 29.0896 29.0896C31.9201 26.2604 33.3347 22.8139 33.3333 18.75C33.3319 14.6861 31.9174 11.2403 29.0896 8.4125C26.2618 5.58472 22.8153 4.16944 18.75 4.16667C16.3542 4.16667 14.1146 4.72222 12.0313 5.83333C9.94792 6.94444 8.19444 8.47222 6.77083 10.4167H10.4167C11.0069 10.4167 11.5021 10.6167 11.9021 11.0167C12.3021 11.4167 12.5014 11.9111 12.5 12.5C12.4986 13.0889 12.2986 13.584 11.9 13.9854C11.5014 14.3868 11.0069 14.5861 10.4167 14.5833H2.08333C1.49306 14.5833 0.998611 14.3833 0.6 13.9833C0.201389 13.5833 0.00138889 13.0889 0 12.5V4.16667C0 3.57639 0.2 3.08194 0.6 2.68333C1 2.28472 1.49444 2.08472 2.08333 2.08333C2.67222 2.08194 3.16736 2.28194 3.56875 2.68333C3.97014 3.08472 4.16944 3.57917 4.16667 4.16667V6.97917C5.9375 4.75694 8.09931 3.03819 10.6521 1.82292C13.2049 0.607639 15.9042 0 18.75 0C21.3542 0 23.7938 0.495139 26.0688 1.48542C28.3438 2.47569 30.3229 3.81181 32.0063 5.49375C33.6896 7.17569 35.0264 9.15486 36.0167 11.4313C37.007 13.7076 37.5014 16.1472 37.5 18.75C37.4986 21.3528 37.0042 23.7924 36.0167 26.0687C35.0292 28.3451 33.6924 30.3243 32.0063 32.0063C30.3201 33.6882 28.341 35.025 26.0688 36.0167C23.7965 37.0083 21.3569 37.5028 18.75 37.5ZM20.8333 17.9167L26.0417 23.125C26.4236 23.5069 26.6146 23.9931 26.6146 24.5833C26.6146 25.1736 26.4236 25.6597 26.0417 26.0417C25.6597 26.4236 25.1736 26.6146 24.5833 26.6146C23.9931 26.6146 23.5069 26.4236 23.125 26.0417L17.2917 20.2083C17.0833 20 16.9271 19.766 16.8229 19.5062C16.7188 19.2465 16.6667 18.9771 16.6667 18.6979V10.4167C16.6667 9.82639 16.8667 9.33194 17.2667 8.93333C17.6667 8.53472 18.1611 8.33472 18.75 8.33333C19.3389 8.33194 19.834 8.53194 20.2354 8.93333C20.6368 9.33472 20.8361 9.82917 20.8333 10.4167V17.9167Z" fill="black"/>
</svg>
