<svg width="50" height="50" viewBox="0 0 50 50" fill="none" xmlns="http://www.w3.org/2000/svg">
<path d="M8.33331 39.5834V20.8334C8.33331 20.1737 8.48123 19.5487 8.77706 18.9584C9.0729 18.3681 9.48054 17.882 9.99998 17.5001L22.5 8.12508C23.2291 7.56953 24.0625 7.29175 25 7.29175C25.9375 7.29175 26.7708 7.56953 27.5 8.12508L40 17.5001C40.5208 17.882 40.9291 18.3681 41.225 18.9584C41.5208 19.5487 41.668 20.1737 41.6666 20.8334V39.5834C41.6666 40.7292 41.2583 41.7105 40.4416 42.5272C39.625 43.3438 38.6444 43.7515 37.5 43.7501H31.25C30.6597 43.7501 30.1653 43.5501 29.7666 43.1501C29.368 42.7501 29.168 42.2556 29.1666 41.6667V31.2501C29.1666 30.6598 28.9666 30.1654 28.5666 29.7667C28.1666 29.3681 27.6722 29.1681 27.0833 29.1667H22.9166C22.3264 29.1667 21.8319 29.3667 21.4333 29.7667C21.0347 30.1667 20.8347 30.6612 20.8333 31.2501V41.6667C20.8333 42.257 20.6333 42.7522 20.2333 43.1522C19.8333 43.5522 19.3389 43.7515 18.75 43.7501H12.5C11.3541 43.7501 10.3736 43.3424 9.55831 42.5272C8.74303 41.7119 8.3347 40.7306 8.33331 39.5834Z" fill="black"/>
</svg>
