<svg width="50" height="50" viewBox="0 0 50 50" fill="none" xmlns="http://www.w3.org/2000/svg">
<path d="M18.7498 27.0833C23.3522 27.0833 27.0832 23.3524 27.0832 18.75C27.0832 14.1476 23.3522 10.4167 18.7498 10.4167C14.1475 10.4167 10.4165 14.1476 10.4165 18.75C10.4165 23.3524 14.1475 27.0833 18.7498 27.0833Z" fill="black" stroke="black" stroke-width="2" stroke-linecap="round" stroke-linejoin="round"/>
<path d="M18.7498 27.0833C10.6957 27.0833 4.1665 32.6792 4.1665 39.5833H33.3332C33.3332 32.6792 26.804 27.0833 18.7498 27.0833Z" fill="black" stroke="black" stroke-width="2" stroke-linecap="round" stroke-linejoin="round"/>
<path d="M31.25 27.0833C32.6425 27.0833 34.0127 26.7343 35.2356 26.0682C36.4584 25.4022 37.4949 24.4403 38.2502 23.2705C39.0056 22.1007 39.4558 20.7603 39.5597 19.3717C39.6635 17.9831 39.4178 16.5906 38.8449 15.3215C38.272 14.0523 37.3902 12.9469 36.2801 12.1064C35.1699 11.2658 33.8669 10.7168 32.4899 10.5095C31.113 10.3022 29.706 10.4433 28.3976 10.9199C27.0892 11.3964 25.9211 12.1932 25 13.2375M31.25 27.0833C29.5688 27.0833 26.8688 26.4729 25 24.5104M31.25 27.0833C39.3042 27.0833 45.8333 32.6792 45.8333 39.5833H33.3333" stroke="black" stroke-width="2" stroke-linecap="round" stroke-linejoin="round"/>
</svg>
