<svg width="21" height="30" viewBox="0 0 21 30" fill="none" xmlns="http://www.w3.org/2000/svg">
<path d="M6.25 16.6667C7.64247 16.6666 9.01273 16.3176 10.2356 15.6515C11.4584 14.9855 12.4949 14.0236 13.2502 12.8538C14.0056 11.684 14.4558 10.3436 14.5597 8.95503C14.6635 7.56644 14.4178 6.17395 13.8449 4.90479C13.272 3.63563 12.3902 2.53027 11.2801 1.68968C10.1699 0.849096 8.86688 0.300093 7.48992 0.0928304C6.11296 -0.114432 4.70601 0.0266556 3.39762 0.503201C2.08924 0.979747 0.92112 1.77656 0 2.82084M6.25 16.6667C4.56875 16.6667 1.86875 16.0563 0 14.0938M6.25 16.6667C14.3042 16.6667 20.8333 22.2625 20.8333 29.1667H8.33333" stroke="black" stroke-width="2" stroke-linecap="round" stroke-linejoin="round"/>
</svg>
