<svg width="50" height="50" viewBox="0 0 50 50" fill="none" xmlns="http://www.w3.org/2000/svg">
<path d="M18.7501 27.0834C23.3525 27.0834 27.0834 23.3525 27.0834 18.7501C27.0834 14.1477 23.3525 10.4167 18.7501 10.4167C14.1477 10.4167 10.4167 14.1477 10.4167 18.7501C10.4167 23.3525 14.1477 27.0834 18.7501 27.0834Z" fill="black" stroke="black" stroke-width="2" stroke-linecap="round" stroke-linejoin="round"/>
<path d="M18.7501 27.0835C10.6959 27.0835 4.16675 32.6793 4.16675 39.5835H33.3334C33.3334 32.6793 26.8042 27.0835 18.7501 27.0835Z" fill="black" stroke="black" stroke-width="2" stroke-linecap="round" stroke-linejoin="round"/>
<path d="M31.25 27.0834C32.6425 27.0833 34.0127 26.7343 35.2356 26.0683C36.4584 25.4022 37.4949 24.4404 38.2502 23.2706C39.0056 22.1008 39.4558 20.7604 39.5597 19.3718C39.6635 17.9832 39.4178 16.5907 38.8449 15.3215C38.272 14.0524 37.3902 12.947 36.2801 12.1064C35.1699 11.2658 33.8669 10.7168 32.4899 10.5096C31.113 10.3023 29.706 10.4434 28.3976 10.9199C27.0892 11.3965 25.9211 12.1933 25 13.2376M31.25 27.0834C29.5688 27.0834 26.8688 26.473 25 24.5105M31.25 27.0834C39.3042 27.0834 45.8333 32.6792 45.8333 39.5834H33.3333" stroke="black" stroke-width="2" stroke-linecap="round" stroke-linejoin="round"/>
</svg>
