<svg width="40" height="40" viewBox="0 0 40 40" fill="none" xmlns="http://www.w3.org/2000/svg">
<path d="M36.4375 0H3.3125C2.43397 0 1.59142 0.348994 0.970209 0.970209C0.348994 1.59142 0 2.43397 0 3.3125V36.4375C0 37.316 0.348994 38.1586 0.970209 38.7798C1.59142 39.401 2.43397 39.75 3.3125 39.75H36.4375C37.316 39.75 38.1586 39.401 38.7798 38.7798C39.401 38.1586 39.75 37.316 39.75 36.4375V3.3125C39.75 2.43397 39.401 1.59142 38.7798 0.970209C38.1586 0.348994 37.316 0 36.4375 0ZM3.3125 36.4375V3.3125H36.4375V36.4375H3.3125Z" fill="black"/>
</svg>
