<svg width="400" height="400" viewBox="0 0 400 400" fill="none" xmlns="http://www.w3.org/2000/svg">
<path d="M285.349 356.067L320.716 320.717M320.716 320.717L356.066 285.35M320.716 320.717L285.333 285.333M320.699 320.7L356.049 356.05M66.666 100V200C66.666 200 66.666 250 183.333 250C299.999 250 299.999 200 299.999 200V100" stroke="black" stroke-width="3" stroke-linecap="round" stroke-linejoin="round"/>
<path d="M183.333 350C66.666 350 66.666 300 66.666 300V200M183.333 50C299.999 50 299.999 100 299.999 100C299.999 100 299.999 150 183.333 150C66.666 150 66.666 100 66.666 100C66.666 100 66.666 50 183.333 50Z" stroke="black" stroke-width="3" stroke-linecap="round" stroke-linejoin="round"/>
</svg>
