<svg width="400" height="400" viewBox="0 0 400 400" fill="none" xmlns="http://www.w3.org/2000/svg">
<path d="M285.35 356.067L320.716 320.717M320.716 320.717L356.066 285.35M320.716 320.717L285.333 285.333M320.7 320.7L356.05 356.05M66.6665 100V200C66.6665 200 66.6665 250 183.333 250C300 250 300 200 300 200V100" stroke="black" stroke-width="3" stroke-linecap="round" stroke-linejoin="round"/>
<path d="M183.333 350C66.6665 350 66.6665 300 66.6665 300V200M183.333 50C300 50 300 100 300 100C300 100 300 150 183.333 150C66.6665 150 66.6665 100 66.6665 100C66.6665 100 66.6665 50 183.333 50Z" stroke="black" stroke-width="3" stroke-linecap="round" stroke-linejoin="round"/>
</svg>
