<svg width="35" height="35" viewBox="0 0 35 35" fill="none" xmlns="http://www.w3.org/2000/svg">
<path d="M23.7482 3.02565e-07C21.9916 -0.000402569 20.2593 0.410708 18.6902 1.20039C17.121 1.99007 15.7586 3.13635 14.7122 4.5474C13.6658 5.95844 12.9644 7.59499 12.6643 9.32592C12.3642 11.0568 12.4737 12.834 12.984 14.515L0 27.5V35H7.49944L20.4835 22.015C22.0307 22.4847 23.6611 22.6153 25.2634 22.3978C26.8656 22.1804 28.4022 21.6201 29.7684 20.7551C31.1346 19.89 32.2982 18.7406 33.18 17.3851C34.0618 16.0297 34.6411 14.5 34.8783 12.9004C35.1155 11.3008 35.0051 9.66887 34.5546 8.1158C34.1041 6.56273 33.3242 5.12504 32.2678 3.9007C31.2115 2.67636 29.9037 1.69415 28.4335 1.02101C26.9633 0.347874 25.3652 -0.000374717 23.7482 3.02565e-07ZM23.7482 20C22.8877 19.9998 22.0319 19.8726 21.2084 19.6225L19.7748 19.1875L18.7161 20.2463L14.7402 24.2225L13.0165 22.5L11.2492 24.2675L12.9728 25.9912L10.9904 27.9737L9.26681 26.25L7.49944 28.0175L9.22306 29.7412L6.46452 32.5H2.49981V28.535L14.7514 16.2825L15.8113 15.2238L15.3764 13.79C14.8421 12.0287 14.8768 10.1439 15.4755 8.40346C16.0742 6.66306 17.2065 5.15579 18.7112 4.09603C20.2158 3.03628 22.0164 2.47802 23.8566 2.50066C25.6968 2.5233 27.4831 3.1257 28.9612 4.22215C30.4394 5.3186 31.5342 6.85328 32.0899 8.60788C32.6456 10.3625 32.6339 12.2476 32.0565 13.9952C31.4791 15.7428 30.3654 17.2638 28.8738 18.3419C27.3822 19.4199 25.5886 20.0002 23.7482 20Z" fill="black"/>
</svg>
