<svg width="50" height="50" viewBox="0 0 50 50" fill="none" xmlns="http://www.w3.org/2000/svg">
<path d="M8.33398 39.5833V20.8333C8.33398 20.1736 8.4819 19.5486 8.77773 18.9583C9.07357 18.368 9.48121 17.8819 10.0007 17.5L22.5007 8.12499C23.2298 7.56943 24.0632 7.29166 25.0007 7.29166C25.9382 7.29166 26.7715 7.56943 27.5007 8.12499L40.0007 17.5C40.5215 17.8819 40.9298 18.368 41.2257 18.9583C41.5215 19.5486 41.6687 20.1736 41.6673 20.8333V39.5833C41.6673 40.7292 41.259 41.7104 40.4423 42.5271C39.6257 43.3437 38.6451 43.7514 37.5007 43.75H31.2507C30.6604 43.75 30.1659 43.55 29.7673 43.15C29.3687 42.75 29.1687 42.2555 29.1673 41.6667V31.25C29.1673 30.6597 28.9673 30.1653 28.5673 29.7667C28.1673 29.368 27.6729 29.168 27.084 29.1667H22.9173C22.327 29.1667 21.8326 29.3667 21.434 29.7667C21.0354 30.1667 20.8354 30.6611 20.834 31.25V41.6667C20.834 42.2569 20.634 42.7521 20.234 43.1521C19.834 43.5521 19.3395 43.7514 18.7507 43.75H12.5007C11.3548 43.75 10.3743 43.3424 9.55898 42.5271C8.74371 41.7118 8.33537 40.7305 8.33398 39.5833Z" fill="black"/>
</svg>
