<svg width="46" height="49" viewBox="0 0 46 49" fill="none" xmlns="http://www.w3.org/2000/svg">
<path fill-rule="evenodd" clip-rule="evenodd" d="M31.2497 17.747C31.2497 20.1004 30.3717 22.3574 28.8089 24.0215C27.2461 25.6856 25.1265 26.6204 22.9163 26.6204C20.7062 26.6204 18.5866 25.6856 17.0238 24.0215C15.461 22.3574 14.583 20.1004 14.583 17.747C14.583 15.3936 15.461 13.1366 17.0238 11.4725C18.5866 9.80841 20.7062 8.87354 22.9163 8.87354C25.1265 8.87354 27.2461 9.80841 28.8089 11.4725C30.3717 13.1366 31.2497 15.3936 31.2497 17.747ZM27.083 17.747C27.083 18.9237 26.644 20.0522 25.8626 20.8842C25.0812 21.7163 24.0214 22.1837 22.9163 22.1837C21.8113 22.1837 20.7515 21.7163 19.9701 20.8842C19.1887 20.0522 18.7497 18.9237 18.7497 17.747C18.7497 16.5703 19.1887 15.4418 19.9701 14.6098C20.7515 13.7777 21.8113 13.3103 22.9163 13.3103C24.0214 13.3103 25.0812 13.7777 25.8626 14.6098C26.644 15.4418 27.083 16.5703 27.083 17.747Z" fill="black"/>
<path fill-rule="evenodd" clip-rule="evenodd" d="M22.9167 0C10.2604 0 0 10.9254 0 24.402C0 37.8786 10.2604 48.804 22.9167 48.804C35.5729 48.804 45.8333 37.8786 45.8333 24.402C45.8333 10.9254 35.5729 0 22.9167 0ZM4.16667 24.402C4.16667 29.0384 5.65208 33.3065 8.14167 36.6962C9.8905 34.2518 12.1462 32.2709 14.7326 30.9079C17.319 29.5449 20.1662 28.8367 23.0521 28.8387C25.9008 28.8352 28.7126 29.5244 31.2732 30.8538C33.8337 32.1833 36.0753 34.1178 37.8271 36.5098C39.6322 33.9889 40.8476 31.0465 41.3727 27.9261C41.8978 24.8057 41.7176 21.597 40.8469 18.5655C39.9762 15.5339 38.44 12.7668 36.3656 10.4929C34.2911 8.2191 31.738 6.50393 28.9175 5.48936C26.0969 4.47479 23.09 4.18998 20.1455 4.6585C17.2011 5.12703 14.4037 6.33541 11.9849 8.18366C9.56614 10.0319 7.59544 12.4669 6.23589 15.2872C4.87635 18.1074 4.16704 21.2319 4.16667 24.402ZM22.9167 44.3673C18.6123 44.3747 14.4378 42.7979 11.1 39.9039C12.4434 37.8555 14.2317 36.1831 16.3127 35.029C18.3937 33.8749 20.7057 33.2733 23.0521 33.2755C25.3691 33.2733 27.6532 33.8599 29.7146 34.9865C31.7759 36.1131 33.555 37.7472 34.9042 39.7531C31.5406 42.7412 27.2972 44.3746 22.9167 44.3673Z" fill="black"/>
</svg>
