<svg width="35" height="35" viewBox="0 0 35 35" fill="none" xmlns="http://www.w3.org/2000/svg">
<path d="M17.5011 22.6041C16.1474 22.6041 14.8491 22.0664 13.8919 21.1092C12.9347 20.1519 12.3969 18.8537 12.3969 17.5C12.3969 16.1463 12.9347 14.848 13.8919 13.8908C14.8491 12.9336 16.1474 12.3958 17.5011 12.3958C18.8548 12.3958 20.1531 12.9336 21.1103 13.8908C22.0675 14.848 22.6053 16.1463 22.6053 17.5C22.6053 18.8537 22.0675 20.1519 21.1103 21.1092C20.1531 22.0664 18.8548 22.6041 17.5011 22.6041ZM28.3365 18.9145C28.3949 18.4479 28.4386 17.9812 28.4386 17.5C28.4386 17.0187 28.3949 16.5375 28.3365 16.0416L31.4136 13.6645C31.6907 13.4458 31.7636 13.052 31.5886 12.7312L28.6719 7.68538C28.4969 7.36455 28.1032 7.2333 27.7824 7.36455L24.1511 8.82288C23.3928 8.25413 22.6053 7.7583 21.6865 7.39371L21.1469 3.52913C21.1173 3.35736 21.0278 3.20163 20.8944 3.08952C20.7609 2.97741 20.5921 2.91616 20.4178 2.91663H14.5844C14.2199 2.91663 13.9136 3.17913 13.8553 3.52913L13.3157 7.39371C12.3969 7.7583 11.6094 8.25413 10.8511 8.82288L7.21986 7.36455C6.89902 7.2333 6.50528 7.36455 6.33028 7.68538L3.41361 12.7312C3.22403 13.052 3.31153 13.4458 3.58861 13.6645L6.66569 16.0416C6.60736 16.5375 6.56361 17.0187 6.56361 17.5C6.56361 17.9812 6.60736 18.4479 6.66569 18.9145L3.58861 21.3354C3.31153 21.5541 3.22403 21.9479 3.41361 22.2687L6.33028 27.3145C6.50528 27.6354 6.89902 27.752 7.21986 27.6354L10.8511 26.1625C11.6094 26.7458 12.3969 27.2416 13.3157 27.6062L13.8553 31.4708C13.9136 31.8208 14.2199 32.0833 14.5844 32.0833H20.4178C20.7824 32.0833 21.0886 31.8208 21.1469 31.4708L21.6865 27.6062C22.6053 27.227 23.3928 26.7458 24.1511 26.1625L27.7824 27.6354C28.1032 27.752 28.4969 27.6354 28.6719 27.3145L31.5886 22.2687C31.7636 21.9479 31.6907 21.5541 31.4136 21.3354L28.3365 18.9145Z" fill="black"/>
</svg>
