<svg width="35" height="36" viewBox="0 0 35 36" fill="none" xmlns="http://www.w3.org/2000/svg">
<path d="M23.7482 3.08168e-07C21.9916 -0.000410024 20.2593 0.418313 18.6902 1.22262C17.121 2.02692 15.7586 3.19444 14.7122 4.63161C13.6658 6.06878 12.9644 7.73564 12.6643 9.49862C12.3642 11.2616 12.4737 13.0717 12.984 14.7838L0 28.0093V35.6481H7.49944L20.4835 22.4227C22.0307 22.9011 23.6611 23.0341 25.2634 22.8126C26.8656 22.5912 28.4022 22.0205 29.7684 21.1394C31.1346 20.2583 32.2982 19.0876 33.18 17.7071C34.0618 16.3265 34.6411 14.7685 34.8783 13.1393C35.1155 11.5101 35.0051 9.84793 34.5546 8.2661C34.1041 6.68427 33.3242 5.21995 32.2678 3.97294C31.2115 2.72592 29.9037 1.72553 28.4335 1.03992C26.9633 0.354316 25.3652 -0.000381656 23.7482 3.08168e-07ZM23.7482 20.3704C22.8877 20.3701 22.0319 20.2406 21.2084 19.9859L19.7748 19.5428L18.7161 20.6212L14.7402 24.6711L13.0165 22.9167L11.2492 24.7169L12.9728 26.4726L10.9904 28.4918L9.26681 26.7361L7.49944 28.5363L9.22306 30.292L6.46452 33.1019H2.49981V29.0634L14.7514 16.584L15.8113 15.5057L15.3764 14.0454C14.8421 12.2515 14.8768 10.3317 15.4755 8.55908C16.0742 6.78645 17.2065 5.25126 18.7112 4.17189C20.2158 3.09251 22.0164 2.52391 23.8566 2.54697C25.6968 2.57003 27.4831 3.18358 28.9612 4.30034C30.4394 5.41709 31.5342 6.98019 32.0899 8.76728C32.6456 10.5544 32.6339 12.4745 32.0565 14.2544C31.4791 16.0343 30.3654 17.5835 28.8738 18.6815C27.3822 19.7796 25.5886 20.3705 23.7482 20.3704Z" fill="black"/>
</svg>
