<svg width="224" height="59" viewBox="0 0 224 59" fill="none" xmlns="http://www.w3.org/2000/svg">
<path d="M40.977 32.3311C40.8149 32.1357 40.6557 31.9404 40.4995 31.752C38.351 29.1533 37.0512 27.585 37.0512 20.2285C37.0512 16.4199 36.1401 13.2949 34.3442 10.9512C33.02 9.21973 31.2299 7.90625 28.8705 6.93555C28.8402 6.91866 28.8131 6.8965 28.7905 6.87012C27.9418 4.02832 25.6196 2.125 23.0004 2.125C20.3813 2.125 18.06 4.02832 17.2114 6.86719C17.1888 6.89264 17.162 6.9141 17.1323 6.93066C11.6264 9.19727 8.95063 13.5459 8.95063 20.2256C8.95063 27.585 7.65278 29.1533 5.50239 31.749C5.34614 31.9375 5.18696 32.1289 5.02485 32.3281C4.6061 32.8331 4.34079 33.4475 4.26031 34.0986C4.17983 34.7497 4.28756 35.4102 4.57075 36.002C5.17328 37.2715 6.45746 38.0596 7.92328 38.0596H38.0883C39.5473 38.0596 40.8227 37.2725 41.4272 36.0088C41.7116 35.4169 41.8203 34.7558 41.7406 34.104C41.6608 33.4522 41.3958 32.8369 40.977 32.3311ZM23.0004 45.875C24.4116 45.8739 25.7962 45.4908 27.0072 44.7665C28.2183 44.0421 29.2108 43.0035 29.8793 41.7607C29.9108 41.7012 29.9264 41.6345 29.9245 41.5672C29.9226 41.4998 29.9033 41.4341 29.8685 41.3764C29.8337 41.3187 29.7846 41.271 29.7259 41.2379C29.6673 41.2048 29.601 41.1874 29.5336 41.1875H16.4692C16.4017 41.1873 16.3354 41.2045 16.2765 41.2375C16.2177 41.2706 16.1685 41.3183 16.1336 41.376C16.0987 41.4337 16.0793 41.4995 16.0773 41.5669C16.0754 41.6343 16.091 41.7011 16.1225 41.7607C16.791 43.0033 17.7833 44.0419 18.9942 44.7662C20.2051 45.4905 21.5894 45.8737 23.0004 45.875Z" fill="black"/>
</svg>
