<svg width="50" height="50" viewBox="0 0 50 50" fill="none" xmlns="http://www.w3.org/2000/svg">
<path d="M10.4173 47.9166H39.584M16.1611 11.9937L20.5819 16.4145M20.5819 16.4145C21.754 15.2424 23.343 14.5833 25.0007 14.5833M20.5819 16.4145C19.4098 17.5866 18.7507 19.1756 18.7507 20.8333M18.7507 20.8333H12.5007M18.7507 20.8333C18.7507 22.4909 19.4098 24.0799 20.5819 25.252M20.5819 25.252L16.1611 29.6728M20.5819 25.252C21.754 26.4241 23.343 27.0833 25.0007 27.0833M25.0007 27.0833V33.3333M25.0007 27.0833C26.6583 27.0833 28.2473 26.4241 29.4194 25.252M29.4194 25.252L33.8402 29.6728M29.4194 25.252C30.5915 24.0799 31.2506 22.4909 31.2506 20.8333M37.5006 20.8333H31.2506M31.2506 20.8333C31.2506 19.1756 30.5915 17.5866 29.4194 16.4145M33.8402 11.9937L29.4194 16.4145M29.4194 16.4145C28.2473 15.2424 26.6583 14.5833 25.0007 14.5833M25.0007 14.5833V8.33325M2.08398 39.5833H47.9173V2.08325H2.08398V39.5833ZM16.6673 47.9166H33.334V39.5833H16.6673V47.9166Z" stroke="black" stroke-width="2"/>
</svg>
