<svg width="50" height="50" viewBox="0 0 50 50" fill="none" xmlns="http://www.w3.org/2000/svg">
<path d="M8.33331 39.5832V20.8332C8.33331 20.1734 8.48123 19.5484 8.77706 18.9582C9.0729 18.3679 9.48054 17.8818 9.99998 17.4998L22.5 8.12484C23.2291 7.56928 24.0625 7.2915 25 7.2915C25.9375 7.2915 26.7708 7.56928 27.5 8.12484L40 17.4998C40.5208 17.8818 40.9291 18.3679 41.225 18.9582C41.5208 19.5484 41.668 20.1734 41.6666 20.8332V39.5832C41.6666 40.729 41.2583 41.7103 40.4416 42.5269C39.625 43.3436 38.6444 43.7512 37.5 43.7498H31.25C30.6597 43.7498 30.1653 43.5498 29.7666 43.1498C29.368 42.7498 29.168 42.2554 29.1666 41.6665V31.2498C29.1666 30.6596 28.9666 30.1651 28.5666 29.7665C28.1666 29.3679 27.6722 29.1679 27.0833 29.1665H22.9166C22.3264 29.1665 21.8319 29.3665 21.4333 29.7665C21.0347 30.1665 20.8347 30.6609 20.8333 31.2498V41.6665C20.8333 42.2568 20.6333 42.7519 20.2333 43.1519C19.8333 43.5519 19.3389 43.7512 18.75 43.7498H12.5C11.3541 43.7498 10.3736 43.3422 9.55831 42.5269C8.74303 41.7116 8.3347 40.7304 8.33331 39.5832Z" fill="black"/>
</svg>
