<svg width="46" height="46" viewBox="0 0 46 46" fill="none" xmlns="http://www.w3.org/2000/svg">
<path fill-rule="evenodd" clip-rule="evenodd" d="M31.2507 16.6666C31.2507 18.8767 30.3727 20.9963 28.8099 22.5591C27.2471 24.1219 25.1275 24.9999 22.9173 24.9999C20.7072 24.9999 18.5876 24.1219 17.0248 22.5591C15.462 20.9963 14.584 18.8767 14.584 16.6666C14.584 14.4564 15.462 12.3368 17.0248 10.774C18.5876 9.21123 20.7072 8.33325 22.9173 8.33325C25.1275 8.33325 27.2471 9.21123 28.8099 10.774C30.3727 12.3368 31.2507 14.4564 31.2507 16.6666ZM27.084 16.6666C27.084 17.7717 26.645 18.8315 25.8636 19.6129C25.0822 20.3943 24.0224 20.8333 22.9173 20.8333C21.8122 20.8333 20.7524 20.3943 19.971 19.6129C19.1896 18.8315 18.7507 17.7717 18.7507 16.6666C18.7507 15.5615 19.1896 14.5017 19.971 13.7203C20.7524 12.9389 21.8122 12.4999 22.9173 12.4999C24.0224 12.4999 25.0822 12.9389 25.8636 13.7203C26.645 14.5017 27.084 15.5615 27.084 16.6666Z" fill="black"/>
<path fill-rule="evenodd" clip-rule="evenodd" d="M22.9167 0C10.2604 0 0 10.2604 0 22.9167C0 35.5729 10.2604 45.8333 22.9167 45.8333C35.5729 45.8333 45.8333 35.5729 45.8333 22.9167C45.8333 10.2604 35.5729 0 22.9167 0ZM4.16667 22.9167C4.16667 27.2708 5.65208 31.2792 8.14167 34.4625C9.8905 32.1669 12.1462 30.3065 14.7326 29.0265C17.319 27.7465 20.1662 27.0815 23.0521 27.0833C25.9008 27.08 28.7126 27.7273 31.2732 28.9758C33.8337 30.2243 36.0753 32.041 37.8271 34.2875C39.6322 31.92 40.8476 29.1567 41.3727 26.2262C41.8978 23.2958 41.7176 20.2824 40.8469 17.4354C39.9762 14.5884 38.44 11.9897 36.3656 9.85424C34.2911 7.71881 31.738 6.10804 28.9175 5.15523C26.0969 4.20241 23.09 3.93494 20.1455 4.37494C17.2011 4.81495 14.4037 5.94977 11.9849 7.68553C9.56614 9.42128 7.59544 11.7081 6.23589 14.3567C4.87635 17.0053 4.16704 19.9395 4.16667 22.9167ZM22.9167 41.6667C18.6123 41.6736 14.4378 40.1928 11.1 37.475C12.4434 35.5513 14.2317 33.9806 16.3127 32.8968C18.3937 31.8129 20.7057 31.248 23.0521 31.25C25.3691 31.248 27.6532 31.7989 29.7146 32.8569C31.7759 33.9149 33.555 35.4496 34.9042 37.3333C31.5406 40.1396 27.2972 41.6735 22.9167 41.6667Z" fill="black"/>
</svg>
