<svg width="35" height="35" viewBox="0 0 35 35" fill="none" xmlns="http://www.w3.org/2000/svg">
<path d="M17.4992 22.6042C16.1454 22.6042 14.8472 22.0664 13.89 21.1092C12.9327 20.152 12.395 18.8537 12.395 17.5C12.395 16.1463 12.9327 14.848 13.89 13.8908C14.8472 12.9336 16.1454 12.3958 17.4992 12.3958C18.8529 12.3958 20.1511 12.9336 21.1083 13.8908C22.0656 14.848 22.6033 16.1463 22.6033 17.5C22.6033 18.8537 22.0656 20.152 21.1083 21.1092C20.1511 22.0664 18.8529 22.6042 17.4992 22.6042ZM28.3346 18.9146C28.3929 18.4479 28.4367 17.9812 28.4367 17.5C28.4367 17.0187 28.3929 16.5375 28.3346 16.0417L31.4117 13.6646C31.6887 13.4458 31.7617 13.0521 31.5867 12.7312L28.67 7.68541C28.495 7.36458 28.1012 7.23333 27.7804 7.36458L24.1492 8.82291C23.3908 8.25416 22.6033 7.75833 21.6846 7.39374L21.145 3.52916C21.1154 3.35739 21.0259 3.20166 20.8924 3.08955C20.759 2.97744 20.5901 2.91619 20.4158 2.91666H14.5825C14.2179 2.91666 13.9117 3.17916 13.8533 3.52916L13.3137 7.39374C12.395 7.75833 11.6075 8.25416 10.8492 8.82291L7.21791 7.36458C6.89707 7.23333 6.50332 7.36458 6.32832 7.68541L3.41166 12.7312C3.22207 13.0521 3.30957 13.4458 3.58666 13.6646L6.66374 16.0417C6.60541 16.5375 6.56166 17.0187 6.56166 17.5C6.56166 17.9812 6.60541 18.4479 6.66374 18.9146L3.58666 21.3354C3.30957 21.5542 3.22207 21.9479 3.41166 22.2687L6.32832 27.3146C6.50332 27.6354 6.89707 27.7521 7.21791 27.6354L10.8492 26.1625C11.6075 26.7458 12.395 27.2417 13.3137 27.6062L13.8533 31.4708C13.9117 31.8208 14.2179 32.0833 14.5825 32.0833H20.4158C20.7804 32.0833 21.0867 31.8208 21.145 31.4708L21.6846 27.6062C22.6033 27.2271 23.3908 26.7458 24.1492 26.1625L27.7804 27.6354C28.1012 27.7521 28.495 27.6354 28.67 27.3146L31.5867 22.2687C31.7617 21.9479 31.6887 21.5542 31.4117 21.3354L28.3346 18.9146Z" fill="black"/>
</svg>
