<svg width="35" height="35" viewBox="0 0 35 35" fill="none" xmlns="http://www.w3.org/2000/svg">
<path d="M17.4992 22.6043C16.1454 22.6043 14.8472 22.0665 13.89 21.1093C12.9327 20.1521 12.395 18.8538 12.395 17.5001C12.395 16.1464 12.9327 14.8481 13.89 13.8909C14.8472 12.9337 16.1454 12.3959 17.4992 12.3959C18.8529 12.3959 20.1511 12.9337 21.1083 13.8909C22.0656 14.8481 22.6033 16.1464 22.6033 17.5001C22.6033 18.8538 22.0656 20.1521 21.1083 21.1093C20.1511 22.0665 18.8529 22.6043 17.4992 22.6043ZM28.3346 18.9147C28.3929 18.448 28.4367 17.9813 28.4367 17.5001C28.4367 17.0188 28.3929 16.5376 28.3346 16.0418L31.4117 13.6647C31.6887 13.4459 31.7617 13.0522 31.5867 12.7313L28.67 7.6855C28.495 7.36467 28.1012 7.23342 27.7804 7.36467L24.1492 8.823C23.3908 8.25425 22.6033 7.75842 21.6846 7.39383L21.145 3.52925C21.1154 3.35748 21.0259 3.20175 20.8924 3.08964C20.759 2.97753 20.5901 2.91628 20.4158 2.91675H14.5825C14.2179 2.91675 13.9117 3.17925 13.8533 3.52925L13.3137 7.39383C12.395 7.75842 11.6075 8.25425 10.8492 8.823L7.21791 7.36467C6.89707 7.23342 6.50332 7.36467 6.32832 7.6855L3.41166 12.7313C3.22207 13.0522 3.30957 13.4459 3.58666 13.6647L6.66374 16.0418C6.60541 16.5376 6.56166 17.0188 6.56166 17.5001C6.56166 17.9813 6.60541 18.448 6.66374 18.9147L3.58666 21.3355C3.30957 21.5543 3.22207 21.948 3.41166 22.2688L6.32832 27.3147C6.50332 27.6355 6.89707 27.7522 7.21791 27.6355L10.8492 26.1626C11.6075 26.7459 12.395 27.2418 13.3137 27.6063L13.8533 31.4709C13.9117 31.8209 14.2179 32.0834 14.5825 32.0834H20.4158C20.7804 32.0834 21.0867 31.8209 21.145 31.4709L21.6846 27.6063C22.6033 27.2272 23.3908 26.7459 24.1492 26.1626L27.7804 27.6355C28.1012 27.7522 28.495 27.6355 28.67 27.3147L31.5867 22.2688C31.7617 21.948 31.6887 21.5543 31.4117 21.3355L28.3346 18.9147Z" fill="black"/>
</svg>
