<svg width="35" height="35" viewBox="0 0 35 35" fill="none" xmlns="http://www.w3.org/2000/svg">
<path d="M17.4999 22.6043C16.1462 22.6043 14.8479 22.0665 13.8907 21.1093C12.9335 20.1521 12.3957 18.8538 12.3957 17.5001C12.3957 16.1464 12.9335 14.8481 13.8907 13.8909C14.8479 12.9337 16.1462 12.3959 17.4999 12.3959C18.8536 12.3959 20.1519 12.9337 21.1091 13.8909C22.0663 14.8481 22.6041 16.1464 22.6041 17.5001C22.6041 18.8538 22.0663 20.1521 21.1091 21.1093C20.1519 22.0665 18.8536 22.6043 17.4999 22.6043ZM28.3353 18.9147C28.3936 18.448 28.4374 17.9813 28.4374 17.5001C28.4374 17.0188 28.3936 16.5376 28.3353 16.0418L31.4124 13.6647C31.6895 13.4459 31.7624 13.0522 31.5874 12.7313L28.6707 7.6855C28.4957 7.36467 28.102 7.23342 27.7811 7.36467L24.1499 8.823C23.3916 8.25425 22.6041 7.75842 21.6853 7.39383L21.1457 3.52925C21.1161 3.35748 21.0266 3.20175 20.8932 3.08964C20.7597 2.97753 20.5909 2.91628 20.4166 2.91675H14.5832C14.2186 2.91675 13.9124 3.17925 13.8541 3.52925L13.3145 7.39383C12.3957 7.75842 11.6082 8.25425 10.8499 8.823L7.21864 7.36467C6.8978 7.23342 6.50405 7.36467 6.32905 7.6855L3.41239 12.7313C3.2228 13.0522 3.3103 13.4459 3.58739 13.6647L6.66447 16.0418C6.60614 16.5376 6.56239 17.0188 6.56239 17.5001C6.56239 17.9813 6.60614 18.448 6.66447 18.9147L3.58739 21.3355C3.3103 21.5543 3.2228 21.948 3.41239 22.2688L6.32905 27.3147C6.50405 27.6355 6.8978 27.7522 7.21864 27.6355L10.8499 26.1626C11.6082 26.7459 12.3957 27.2418 13.3145 27.6063L13.8541 31.4709C13.9124 31.8209 14.2186 32.0834 14.5832 32.0834H20.4166C20.7811 32.0834 21.0874 31.8209 21.1457 31.4709L21.6853 27.6063C22.6041 27.2272 23.3916 26.7459 24.1499 26.1626L27.7811 27.6355C28.102 27.7522 28.4957 27.6355 28.6707 27.3147L31.5874 22.2688C31.7624 21.948 31.6895 21.5543 31.4124 21.3355L28.3353 18.9147Z" fill="black"/>
</svg>
