<svg width="42" height="30" viewBox="0 0 42 30" fill="none" xmlns="http://www.w3.org/2000/svg">
<path d="M14.5833 16.6667C19.1857 16.6667 22.9167 12.9357 22.9167 8.33333C22.9167 3.73096 19.1857 0 14.5833 0C9.98096 0 6.25 3.73096 6.25 8.33333C6.25 12.9357 9.98096 16.6667 14.5833 16.6667Z" fill="black" stroke="black" stroke-width="2" stroke-linecap="round" stroke-linejoin="round"/>
<path d="M14.5833 16.6665C6.52917 16.6665 0 22.2623 0 29.1665H29.1667C29.1667 22.2623 22.6375 16.6665 14.5833 16.6665Z" fill="black" stroke="black" stroke-width="2" stroke-linecap="round" stroke-linejoin="round"/>
<path d="M27.0833 16.6667C28.4758 16.6666 29.846 16.3176 31.0689 15.6515C32.2917 14.9855 33.3282 14.0236 34.0835 12.8538C34.8389 11.684 35.2891 10.3436 35.393 8.95503C35.4969 7.56644 35.2511 6.17395 34.6782 4.90479C34.1053 3.63563 33.2235 2.53027 32.1134 1.68968C31.0033 0.849096 29.7002 0.300093 28.3232 0.0928304C26.9463 -0.114432 25.5393 0.0266556 24.2309 0.503201C22.9225 0.979747 21.7544 1.77656 20.8333 2.82084M27.0833 16.6667C25.4021 16.6667 22.7021 16.0563 20.8333 14.0938M27.0833 16.6667C35.1375 16.6667 41.6666 22.2625 41.6666 29.1667H29.1666" stroke="black" stroke-width="2" stroke-linecap="round" stroke-linejoin="round"/>
</svg>
