<svg width="50" height="50" viewBox="0 0 50 50" fill="none" xmlns="http://www.w3.org/2000/svg">
<path d="M8.33203 39.5833V20.8333C8.33203 20.1736 8.47995 19.5486 8.77578 18.9583C9.07161 18.368 9.47925 17.8819 9.9987 17.5L22.4987 8.12496C23.2279 7.5694 24.0612 7.29163 24.9987 7.29163C25.9362 7.29163 26.7695 7.5694 27.4987 8.12496L39.9987 17.5C40.5195 17.8819 40.9279 18.368 41.2237 18.9583C41.5195 19.5486 41.6668 20.1736 41.6654 20.8333V39.5833C41.6654 40.7291 41.257 41.7104 40.4404 42.527C39.6237 43.3437 38.6431 43.7513 37.4987 43.75H31.2487C30.6584 43.75 30.164 43.55 29.7654 43.15C29.3668 42.75 29.1668 42.2555 29.1654 41.6666V31.25C29.1654 30.6597 28.9654 30.1652 28.5654 29.7666C28.1654 29.368 27.6709 29.168 27.082 29.1666H22.9154C22.3251 29.1666 21.8306 29.3666 21.432 29.7666C21.0334 30.1666 20.8334 30.6611 20.832 31.25V41.6666C20.832 42.2569 20.632 42.752 20.232 43.152C19.832 43.552 19.3376 43.7513 18.7487 43.75H12.4987C11.3529 43.75 10.3723 43.3423 9.55703 42.527C8.74175 41.7118 8.33342 40.7305 8.33203 39.5833Z" fill="black"/>
</svg>
