<svg width="50" height="50" viewBox="0 0 50 50" fill="none" xmlns="http://www.w3.org/2000/svg">
<path d="M8.33331 39.5833V20.8333C8.33331 20.1736 8.48123 19.5486 8.77706 18.9583C9.0729 18.368 9.48054 17.8819 9.99998 17.5L22.5 8.12499C23.2291 7.56943 24.0625 7.29166 25 7.29166C25.9375 7.29166 26.7708 7.56943 27.5 8.12499L40 17.5C40.5208 17.8819 40.9291 18.368 41.225 18.9583C41.5208 19.5486 41.668 20.1736 41.6666 20.8333V39.5833C41.6666 40.7292 41.2583 41.7104 40.4416 42.5271C39.625 43.3437 38.6444 43.7514 37.5 43.75H31.25C30.6597 43.75 30.1653 43.55 29.7666 43.15C29.368 42.75 29.168 42.2555 29.1666 41.6667V31.25C29.1666 30.6597 28.9666 30.1653 28.5666 29.7667C28.1666 29.368 27.6722 29.168 27.0833 29.1667H22.9166C22.3264 29.1667 21.8319 29.3667 21.4333 29.7667C21.0347 30.1667 20.8347 30.6611 20.8333 31.25V41.6667C20.8333 42.2569 20.6333 42.7521 20.2333 43.1521C19.8333 43.5521 19.3389 43.7514 18.75 43.75H12.5C11.3541 43.75 10.3736 43.3424 9.55831 42.5271C8.74303 41.7118 8.3347 40.7305 8.33331 39.5833Z" fill="black"/>
</svg>
