<svg width="50" height="50" viewBox="0 0 50 50" fill="none" xmlns="http://www.w3.org/2000/svg">
<path d="M10.4173 47.9168H39.584M16.1611 11.9939L20.5819 16.4147M20.5819 16.4147C21.754 15.2426 23.343 14.5835 25.0007 14.5835M20.5819 16.4147C19.4098 17.5868 18.7507 19.1759 18.7507 20.8335M18.7507 20.8335H12.5007M18.7507 20.8335C18.7507 22.4911 19.4098 24.0801 20.5819 25.2522M20.5819 25.2522L16.1611 29.6731M20.5819 25.2522C21.754 26.4243 23.343 27.0835 25.0007 27.0835M25.0007 27.0835V33.3335M25.0007 27.0835C26.6583 27.0835 28.2473 26.4243 29.4194 25.2522M29.4194 25.2522L33.8402 29.6731M29.4194 25.2522C30.5915 24.0801 31.2506 22.4911 31.2506 20.8335M37.5006 20.8335H31.2506M31.2506 20.8335C31.2506 19.1759 30.5915 17.5868 29.4194 16.4147M33.8402 11.9939L29.4194 16.4147M29.4194 16.4147C28.2473 15.2426 26.6583 14.5835 25.0007 14.5835M25.0007 14.5835V8.3335M2.08398 39.5835H47.9173V2.0835H2.08398V39.5835ZM16.6673 47.9168H33.334V39.5835H16.6673V47.9168Z" stroke="black" stroke-width="2"/>
</svg>
