<svg width="42" height="30" viewBox="0 0 42 30" fill="none" xmlns="http://www.w3.org/2000/svg">
<path d="M14.5833 16.6667C19.1857 16.6667 22.9167 12.9357 22.9167 8.33333C22.9167 3.73096 19.1857 0 14.5833 0C9.98096 0 6.25 3.73096 6.25 8.33333C6.25 12.9357 9.98096 16.6667 14.5833 16.6667Z" fill="black" stroke="black" stroke-width="2" stroke-linecap="round" stroke-linejoin="round"/>
<path d="M14.5833 16.6665C6.52917 16.6665 0 22.2623 0 29.1665H29.1667C29.1667 22.2623 22.6375 16.6665 14.5833 16.6665Z" fill="black" stroke="black" stroke-width="2" stroke-linecap="round" stroke-linejoin="round"/>
<path d="M27.0835 16.6667C28.476 16.6666 29.8462 16.3176 31.0691 15.6515C32.2919 14.9855 33.3284 14.0236 34.0837 12.8538C34.8391 11.684 35.2893 10.3436 35.3932 8.95503C35.497 7.56644 35.2513 6.17395 34.6784 4.90479C34.1055 3.63563 33.2237 2.53027 32.1136 1.68968C31.0034 0.849096 29.7004 0.300093 28.3234 0.0928304C26.9465 -0.114432 25.5395 0.0266556 24.2311 0.503201C22.9227 0.979747 21.7546 1.77656 20.8335 2.82084M27.0835 16.6667C25.4022 16.6667 22.7022 16.0563 20.8335 14.0938M27.0835 16.6667C35.1377 16.6667 41.6668 22.2625 41.6668 29.1667H29.1668" stroke="black" stroke-width="2" stroke-linecap="round" stroke-linejoin="round"/>
</svg>
