<svg width="50" height="50" viewBox="0 0 50 50" fill="none" xmlns="http://www.w3.org/2000/svg">
<path fill-rule="evenodd" clip-rule="evenodd" d="M33.3337 18.7498C33.3337 20.96 32.4557 23.0796 30.8929 24.6424C29.3301 26.2052 27.2105 27.0832 25.0003 27.0832C22.7902 27.0832 20.6706 26.2052 19.1078 24.6424C17.545 23.0796 16.667 20.96 16.667 18.7498C16.667 16.5397 17.545 14.4201 19.1078 12.8573C20.6706 11.2945 22.7902 10.4165 25.0003 10.4165C27.2105 10.4165 29.3301 11.2945 30.8929 12.8573C32.4557 14.4201 33.3337 16.5397 33.3337 18.7498ZM29.167 18.7498C29.167 19.8549 28.728 20.9147 27.9466 21.6961C27.1652 22.4775 26.1054 22.9165 25.0003 22.9165C23.8953 22.9165 22.8354 22.4775 22.054 21.6961C21.2726 20.9147 20.8337 19.8549 20.8337 18.7498C20.8337 17.6448 21.2726 16.585 22.054 15.8036C22.8354 15.0222 23.8953 14.5832 25.0003 14.5832C26.1054 14.5832 27.1652 15.0222 27.9466 15.8036C28.728 16.585 29.167 17.6448 29.167 18.7498Z" fill="black"/>
<path fill-rule="evenodd" clip-rule="evenodd" d="M25.0002 2.08325C12.3439 2.08325 2.0835 12.3437 2.0835 24.9999C2.0835 37.6562 12.3439 47.9166 25.0002 47.9166C37.6564 47.9166 47.9168 37.6562 47.9168 24.9999C47.9168 12.3437 37.6564 2.08325 25.0002 2.08325ZM6.25016 24.9999C6.25016 29.3541 7.73558 33.3624 10.2252 36.5457C11.974 34.2502 14.2296 32.3898 16.8161 31.1098C19.4025 29.8297 22.2497 29.1647 25.1356 29.1666C27.9843 29.1633 30.7961 29.8105 33.3567 31.059C35.9172 32.3075 38.1588 34.1243 39.9106 36.3708C41.7157 34.0033 42.9311 31.24 43.4562 28.3095C43.9813 25.379 43.8011 22.3656 42.9304 19.5186C42.0597 16.6717 40.5235 14.0729 38.4491 11.9375C36.3746 9.80206 33.8215 8.19129 31.001 7.23848C28.1804 6.28566 25.1735 6.01819 22.229 6.4582C19.2846 6.8982 16.4872 8.03303 14.0684 9.76878C11.6496 11.5045 9.67894 13.7913 8.31939 16.4399C6.95984 19.0885 6.25054 22.0228 6.25016 24.9999ZM25.0002 43.7499C20.6958 43.7569 16.5213 42.2761 13.1835 39.5583C14.5268 37.6345 16.3151 36.0639 18.3962 34.98C20.4772 33.8962 22.7892 33.3312 25.1356 33.3333C27.4526 33.3312 29.7367 33.8821 31.798 34.9401C33.8594 35.9982 35.6385 37.5328 36.9877 39.4166C33.6241 42.2228 29.3807 43.7568 25.0002 43.7499Z" fill="black"/>
</svg>
