<svg width="35" height="35" viewBox="0 0 35 35" fill="none" xmlns="http://www.w3.org/2000/svg">
<path d="M17.4999 22.6042C16.1462 22.6042 14.8479 22.0664 13.8907 21.1092C12.9335 20.152 12.3957 18.8537 12.3957 17.5C12.3957 16.1463 12.9335 14.848 13.8907 13.8908C14.8479 12.9336 16.1462 12.3958 17.4999 12.3958C18.8536 12.3958 20.1519 12.9336 21.1091 13.8908C22.0663 14.848 22.6041 16.1463 22.6041 17.5C22.6041 18.8537 22.0663 20.152 21.1091 21.1092C20.1519 22.0664 18.8536 22.6042 17.4999 22.6042ZM28.3353 18.9146C28.3936 18.4479 28.4374 17.9812 28.4374 17.5C28.4374 17.0187 28.3936 16.5375 28.3353 16.0417L31.4124 13.6646C31.6895 13.4458 31.7624 13.0521 31.5874 12.7312L28.6707 7.68541C28.4957 7.36458 28.102 7.23333 27.7811 7.36458L24.1499 8.82291C23.3916 8.25416 22.6041 7.75833 21.6853 7.39374L21.1457 3.52916C21.1161 3.35739 21.0266 3.20166 20.8932 3.08955C20.7597 2.97744 20.5909 2.91619 20.4166 2.91666H14.5832C14.2186 2.91666 13.9124 3.17916 13.8541 3.52916L13.3145 7.39374C12.3957 7.75833 11.6082 8.25416 10.8499 8.82291L7.21864 7.36458C6.8978 7.23333 6.50405 7.36458 6.32905 7.68541L3.41239 12.7312C3.2228 13.0521 3.3103 13.4458 3.58739 13.6646L6.66447 16.0417C6.60614 16.5375 6.56239 17.0187 6.56239 17.5C6.56239 17.9812 6.60614 18.4479 6.66447 18.9146L3.58739 21.3354C3.3103 21.5542 3.2228 21.9479 3.41239 22.2687L6.32905 27.3146C6.50405 27.6354 6.8978 27.7521 7.21864 27.6354L10.8499 26.1625C11.6082 26.7458 12.3957 27.2417 13.3145 27.6062L13.8541 31.4708C13.9124 31.8208 14.2186 32.0833 14.5832 32.0833H20.4166C20.7811 32.0833 21.0874 31.8208 21.1457 31.4708L21.6853 27.6062C22.6041 27.2271 23.3916 26.7458 24.1499 26.1625L27.7811 27.6354C28.102 27.7521 28.4957 27.6354 28.6707 27.3146L31.5874 22.2687C31.7624 21.9479 31.6895 21.5542 31.4124 21.3354L28.3353 18.9146Z" fill="black"/>
</svg>
