<svg width="38" height="44" viewBox="0 0 38 44" fill="none" xmlns="http://www.w3.org/2000/svg">
<path d="M36.7426 30.2061C36.5805 30.0107 36.4213 29.8154 36.2651 29.627C34.1166 27.0283 32.8168 25.46 32.8168 18.1035C32.8168 14.2949 31.9057 11.1699 30.1098 8.82617C28.7856 7.09473 26.9955 5.78125 24.6362 4.81055C24.6058 4.79366 24.5787 4.7715 24.5561 4.74512C23.7075 1.90332 21.3852 0 18.7661 0C16.1469 0 13.8256 1.90332 12.977 4.74219C12.9544 4.76764 12.9276 4.7891 12.8979 4.80566C7.39203 7.07227 4.71625 11.4209 4.71625 18.1006C4.71625 25.46 3.4184 27.0283 1.26801 29.624C1.11176 29.8125 0.952582 30.0039 0.790472 30.2031C0.371723 30.7081 0.106411 31.3225 0.0259347 31.9736C-0.0545415 32.6247 0.0531867 33.2852 0.336371 33.877C0.93891 35.1465 2.22309 35.9346 3.68891 35.9346H33.8539C35.3129 35.9346 36.5883 35.1475 37.1928 33.8838C37.4772 33.2919 37.586 32.6308 37.5062 31.979C37.4264 31.3272 37.1614 30.7119 36.7426 30.2061ZM18.7661 43.75C20.1772 43.7489 21.5618 43.3658 22.7729 42.6415C23.9839 41.9171 24.9764 40.8785 25.645 39.6357C25.6765 39.5762 25.692 39.5095 25.6901 39.4422C25.6882 39.3748 25.669 39.3091 25.6342 39.2514C25.5994 39.1937 25.5502 39.146 25.4916 39.1129C25.4329 39.0798 25.3666 39.0624 25.2993 39.0625H12.2348C12.1674 39.0623 12.101 39.0795 12.0422 39.1125C11.9834 39.1456 11.9341 39.1933 11.8992 39.251C11.8643 39.3087 11.8449 39.3745 11.843 39.4419C11.841 39.5093 11.8566 39.5761 11.8881 39.6357C12.5566 40.8783 13.5489 41.9169 14.7598 42.6412C15.9707 43.3655 17.3551 43.7487 18.7661 43.75Z" fill="black"/>
</svg>
