<svg width="50" height="50" viewBox="0 0 50 50" fill="none" xmlns="http://www.w3.org/2000/svg">
<path d="M18.7498 27.0832C23.3522 27.0832 27.0832 23.3522 27.0832 18.7498C27.0832 14.1475 23.3522 10.4165 18.7498 10.4165C14.1475 10.4165 10.4165 14.1475 10.4165 18.7498C10.4165 23.3522 14.1475 27.0832 18.7498 27.0832Z" fill="black" stroke="black" stroke-width="2" stroke-linecap="round" stroke-linejoin="round"/>
<path d="M18.7498 27.083C10.6957 27.083 4.1665 32.6788 4.1665 39.583H33.3332C33.3332 32.6788 26.804 27.083 18.7498 27.083Z" fill="black" stroke="black" stroke-width="2" stroke-linecap="round" stroke-linejoin="round"/>
<path d="M31.25 27.0832C32.6425 27.0831 34.0127 26.7341 35.2356 26.068C36.4584 25.402 37.4949 24.4401 38.2502 23.2703C39.0056 22.1005 39.4558 20.7601 39.5597 19.3715C39.6635 17.9829 39.4178 16.5905 38.8449 15.3213C38.272 14.0521 37.3902 12.9468 36.2801 12.1062C35.1699 11.2656 33.8669 10.7166 32.4899 10.5093C31.113 10.3021 29.706 10.4432 28.3976 10.9197C27.0892 11.3963 25.9211 12.1931 25 13.2373M31.25 27.0832C29.5688 27.0832 26.8688 26.4728 25 24.5103M31.25 27.0832C39.3042 27.0832 45.8333 32.679 45.8333 39.5832H33.3333" stroke="black" stroke-width="2" stroke-linecap="round" stroke-linejoin="round"/>
</svg>
