<svg width="50" height="50" viewBox="0 0 50 50" fill="none" xmlns="http://www.w3.org/2000/svg">
<path d="M10.4168 47.9166H39.5835M16.1606 11.9937L20.5814 16.4145M20.5814 16.4145C21.7535 15.2424 23.3426 14.5833 25.0002 14.5833M20.5814 16.4145C19.4093 17.5866 18.7502 19.1756 18.7502 20.8333M18.7502 20.8333H12.5002M18.7502 20.8333C18.7502 22.4909 19.4093 24.0799 20.5814 25.252M20.5814 25.252L16.1606 29.6728M20.5814 25.252C21.7535 26.4241 23.3426 27.0833 25.0002 27.0833M25.0002 27.0833V33.3333M25.0002 27.0833C26.6578 27.0833 28.2468 26.4241 29.4189 25.252M29.4189 25.252L33.8397 29.6728M29.4189 25.252C30.591 24.0799 31.2502 22.4909 31.2502 20.8333M37.5002 20.8333H31.2502M31.2502 20.8333C31.2502 19.1756 30.591 17.5866 29.4189 16.4145M33.8397 11.9937L29.4189 16.4145M29.4189 16.4145C28.2468 15.2424 26.6578 14.5833 25.0002 14.5833M25.0002 14.5833V8.33325M2.0835 39.5833H47.9168V2.08325H2.0835V39.5833ZM16.6668 47.9166H33.3335V39.5833H16.6668V47.9166Z" stroke="black" stroke-width="2"/>
</svg>
