<svg width="224" height="59" viewBox="0 0 224 59" fill="none" xmlns="http://www.w3.org/2000/svg">
<path d="M40.9765 32.3311C40.8144 32.1357 40.6552 31.9404 40.499 31.752C38.3505 29.1533 37.0507 27.585 37.0507 20.2285C37.0507 16.4199 36.1396 13.2949 34.3437 10.9512C33.0195 9.21973 31.2294 7.90625 28.8701 6.93555C28.8397 6.91866 28.8126 6.8965 28.79 6.87012C27.9414 4.02832 25.6191 2.125 22.9999 2.125C20.3808 2.125 18.0595 4.02832 17.2109 6.86719C17.1883 6.89264 17.1615 6.9141 17.1318 6.93066C11.6259 9.19727 8.95014 13.5459 8.95014 20.2256C8.95014 27.585 7.65229 29.1533 5.5019 31.749C5.34565 31.9375 5.18647 32.1289 5.02436 32.3281C4.60561 32.8331 4.3403 33.4475 4.25982 34.0986C4.17935 34.7497 4.28707 35.4102 4.57026 36.002C5.1728 37.2715 6.45698 38.0596 7.9228 38.0596H38.0878C39.5468 38.0596 40.8222 37.2725 41.4267 36.0088C41.7111 35.4169 41.8199 34.7558 41.7401 34.104C41.6603 33.4522 41.3953 32.8369 40.9765 32.3311ZM22.9999 45.875C24.4111 45.8739 25.7957 45.4908 27.0067 44.7665C28.2178 44.0421 29.2103 43.0035 29.8789 41.7607C29.9103 41.7012 29.9259 41.6345 29.924 41.5672C29.9221 41.4998 29.9028 41.4341 29.868 41.3764C29.8333 41.3187 29.7841 41.271 29.7254 41.2379C29.6668 41.2048 29.6005 41.1874 29.5331 41.1875H16.4687C16.4012 41.1873 16.3349 41.2045 16.2761 41.2375C16.2172 41.2706 16.168 41.3183 16.1331 41.376C16.0982 41.4337 16.0788 41.4995 16.0769 41.5669C16.0749 41.6343 16.0905 41.7011 16.122 41.7607C16.7905 43.0033 17.7828 44.0419 18.9937 44.7662C20.2046 45.4905 21.5889 45.8737 22.9999 45.875Z" fill="black"/>
</svg>
