<svg width="50" height="50" viewBox="0 0 50 50" fill="none" xmlns="http://www.w3.org/2000/svg">
<path d="M25 43.75C20.625 43.75 16.7535 42.4222 13.3854 39.7667C10.0174 37.1111 7.82986 33.7167 6.82292 29.5833C6.68403 29.0625 6.78819 28.5854 7.13542 28.1521C7.48264 27.7188 7.95139 27.4667 8.54167 27.3958C9.09722 27.3264 9.60069 27.4306 10.0521 27.7083C10.5035 27.9861 10.816 28.4028 10.9896 28.9583C11.8229 32.0833 13.5417 34.6354 16.1458 36.6146C18.75 38.5938 21.7014 39.5833 25 39.5833C29.0625 39.5833 32.509 38.1687 35.3396 35.3396C38.1701 32.5104 39.5847 29.0639 39.5833 25C39.5819 20.9361 38.1674 17.4903 35.3396 14.6625C32.5118 11.8347 29.0653 10.4194 25 10.4167C22.6042 10.4167 20.3646 10.9722 18.2813 12.0833C16.1979 13.1944 14.4444 14.7222 13.0208 16.6667H16.6667C17.2569 16.6667 17.7521 16.8667 18.1521 17.2667C18.5521 17.6667 18.7514 18.1611 18.75 18.75C18.7486 19.3389 18.5486 19.834 18.15 20.2354C17.7514 20.6368 17.2569 20.8361 16.6667 20.8333H8.33333C7.74306 20.8333 7.24861 20.6333 6.85 20.2333C6.45139 19.8333 6.25139 19.3389 6.25 18.75V10.4167C6.25 9.82639 6.45 9.33194 6.85 8.93333C7.25 8.53472 7.74444 8.33472 8.33333 8.33333C8.92222 8.33194 9.41736 8.53194 9.81875 8.93333C10.2201 9.33472 10.4194 9.82917 10.4167 10.4167V13.2292C12.1875 11.0069 14.3493 9.28819 16.9021 8.07292C19.4549 6.85764 22.1542 6.25 25 6.25C27.6042 6.25 30.0438 6.74514 32.3188 7.73542C34.5938 8.72569 36.5729 10.0618 38.2563 11.7438C39.9396 13.4257 41.2764 15.4049 42.2667 17.6813C43.257 19.9576 43.7514 22.3972 43.75 25C43.7486 27.6028 43.2542 30.0424 42.2667 32.3187C41.2792 34.5951 39.9424 36.5743 38.2563 38.2563C36.5701 39.9382 34.591 41.275 32.3188 42.2667C30.0465 43.2583 27.6069 43.7528 25 43.75ZM27.0833 24.1667L32.2917 29.375C32.6736 29.7569 32.8646 30.2431 32.8646 30.8333C32.8646 31.4236 32.6736 31.9097 32.2917 32.2917C31.9097 32.6736 31.4236 32.8646 30.8333 32.8646C30.2431 32.8646 29.7569 32.6736 29.375 32.2917L23.5417 26.4583C23.3333 26.25 23.1771 26.016 23.0729 25.7562C22.9688 25.4965 22.9167 25.2271 22.9167 24.9479V16.6667C22.9167 16.0764 23.1167 15.5819 23.5167 15.1833C23.9167 14.7847 24.4111 14.5847 25 14.5833C25.5889 14.5819 26.084 14.7819 26.4854 15.1833C26.8868 15.5847 27.0861 16.0792 27.0833 16.6667V24.1667Z" fill="black"/>
</svg>
