<svg width="215" height="46" viewBox="0 0 215 46" fill="none" xmlns="http://www.w3.org/2000/svg">
<path fill-rule="evenodd" clip-rule="evenodd" d="M200.1 16.6666C200.1 18.8767 199.222 20.9963 197.659 22.5591C196.097 24.1219 193.977 24.9999 191.767 24.9999C189.557 24.9999 187.437 24.1219 185.874 22.5591C184.312 20.9963 183.434 18.8767 183.434 16.6666C183.434 14.4564 184.312 12.3368 185.874 10.774C187.437 9.21123 189.557 8.33325 191.767 8.33325C193.977 8.33325 196.097 9.21123 197.659 10.774C199.222 12.3368 200.1 14.4564 200.1 16.6666ZM195.934 16.6666C195.934 17.7717 195.495 18.8315 194.713 19.6129C193.932 20.3943 192.872 20.8333 191.767 20.8333C190.662 20.8333 189.602 20.3943 188.821 19.6129C188.039 18.8315 187.6 17.7717 187.6 16.6666C187.6 15.5615 188.039 14.5017 188.821 13.7203C189.602 12.9389 190.662 12.4999 191.767 12.4999C192.872 12.4999 193.932 12.9389 194.713 13.7203C195.495 14.5017 195.934 15.5615 195.934 16.6666Z" fill="black"/>
<path fill-rule="evenodd" clip-rule="evenodd" d="M191.766 0C179.11 0 168.85 10.2604 168.85 22.9167C168.85 35.5729 179.11 45.8333 191.766 45.8333C204.423 45.8333 214.683 35.5729 214.683 22.9167C214.683 10.2604 204.423 0 191.766 0ZM173.016 22.9167C173.016 27.2708 174.502 31.2792 176.991 34.4625C178.74 32.1669 180.996 30.3065 183.582 29.0265C186.169 27.7465 189.016 27.0815 191.902 27.0833C194.75 27.08 197.562 27.7273 200.123 28.9758C202.683 30.2243 204.925 32.041 206.677 34.2875C208.482 31.92 209.697 29.1567 210.222 26.2262C210.747 23.2958 210.567 20.2824 209.696 17.4354C208.826 14.5884 207.29 11.9897 205.215 9.85424C203.141 7.71881 200.588 6.10804 197.767 5.15523C194.947 4.20241 191.94 3.93494 188.995 4.37494C186.051 4.81495 183.253 5.94977 180.835 7.68553C178.416 9.42128 176.445 11.7081 175.086 14.3567C173.726 17.0053 173.017 19.9395 173.016 22.9167ZM191.766 41.6667C187.462 41.6736 183.287 40.1928 179.95 37.475C181.293 35.5513 183.081 33.9806 185.162 32.8968C187.243 31.8129 189.555 31.248 191.902 31.25C194.219 31.248 196.503 31.7989 198.564 32.8569C200.626 33.9149 202.405 35.4496 203.754 37.3333C200.39 40.1396 196.147 41.6735 191.766 41.6667Z" fill="black"/>
<path d="M36.7426 31.2478C36.5805 31.0525 36.4213 30.8572 36.2651 30.6687C34.1166 28.0701 32.8168 26.5017 32.8168 19.1453C32.8168 15.3367 31.9057 12.2117 30.1098 9.86792C28.7856 8.13647 26.9955 6.823 24.6362 5.85229C24.6058 5.83541 24.5787 5.81325 24.5561 5.78686C23.7075 2.94507 21.3852 1.04175 18.7661 1.04175C16.1469 1.04175 13.8256 2.94507 12.977 5.78394C12.9544 5.80939 12.9276 5.83085 12.8979 5.84741C7.39203 8.11401 4.71625 12.4626 4.71625 19.1423C4.71625 26.5017 3.4184 28.0701 1.26801 30.6658C1.11176 30.8542 0.952582 31.0457 0.790472 31.2449C0.371723 31.7499 0.106411 32.3643 0.0259347 33.0154C-0.0545415 33.6664 0.0531868 34.3269 0.336371 34.9187C0.93891 36.1882 2.22309 36.9763 3.68891 36.9763H33.8539C35.3129 36.9763 36.5883 36.1892 37.1928 34.9255C37.4772 34.3336 37.586 33.6726 37.5062 33.0208C37.4264 32.3689 37.1614 31.7536 36.7426 31.2478ZM18.7661 44.7917C20.1772 44.7906 21.5618 44.4075 22.7729 43.6832C23.9839 42.9589 24.9764 41.9202 25.645 40.6775C25.6765 40.6179 25.692 40.5512 25.6901 40.4839C25.6882 40.4165 25.669 40.3508 25.6342 40.2931C25.5994 40.2355 25.5502 40.1877 25.4916 40.1546C25.4329 40.1215 25.3666 40.1042 25.2993 40.1042H12.2348C12.1674 40.104 12.101 40.1212 12.0422 40.1543C11.9834 40.1873 11.9341 40.235 11.8992 40.2927C11.8643 40.3504 11.8449 40.4162 11.843 40.4837C11.841 40.5511 11.8566 40.6179 11.8881 40.6775C12.5566 41.9201 13.5489 42.9586 14.7598 43.683C15.9707 44.4073 17.3551 44.7904 18.7661 44.7917Z" fill="black"/>
</svg>
