<svg width="50" height="50" viewBox="0 0 50 50" fill="none" xmlns="http://www.w3.org/2000/svg">
<path d="M10.4163 47.9166H39.583M16.1601 11.9937L20.5809 16.4145M20.5809 16.4145C21.753 15.2424 23.3421 14.5833 24.9997 14.5833M20.5809 16.4145C19.4088 17.5866 18.7497 19.1756 18.7497 20.8333M18.7497 20.8333H12.4997M18.7497 20.8333C18.7497 22.4909 19.4088 24.0799 20.5809 25.252M20.5809 25.252L16.1601 29.6728M20.5809 25.252C21.753 26.4241 23.3421 27.0833 24.9997 27.0833M24.9997 27.0833V33.3333M24.9997 27.0833C26.6573 27.0833 28.2463 26.4241 29.4184 25.252M29.4184 25.252L33.8393 29.6728M29.4184 25.252C30.5905 24.0799 31.2497 22.4909 31.2497 20.8333M37.4997 20.8333H31.2497M31.2497 20.8333C31.2497 19.1756 30.5905 17.5866 29.4184 16.4145M33.8393 11.9937L29.4184 16.4145M29.4184 16.4145C28.2463 15.2424 26.6573 14.5833 24.9997 14.5833M24.9997 14.5833V8.33325M2.08301 39.5833H47.9163V2.08325H2.08301V39.5833ZM16.6663 47.9166H33.333V39.5833H16.6663V47.9166Z" stroke="black" stroke-width="2"/>
</svg>
