<svg width="50" height="50" viewBox="0 0 50 50" fill="none" xmlns="http://www.w3.org/2000/svg">
<path fill-rule="evenodd" clip-rule="evenodd" d="M33.3337 18.75C33.3337 20.9601 32.4557 23.0797 30.8929 24.6425C29.3301 26.2053 27.2105 27.0833 25.0003 27.0833C22.7902 27.0833 20.6706 26.2053 19.1078 24.6425C17.545 23.0797 16.667 20.9601 16.667 18.75C16.667 16.5398 17.545 14.4202 19.1078 12.8574C20.6706 11.2946 22.7902 10.4166 25.0003 10.4166C27.2105 10.4166 29.3301 11.2946 30.8929 12.8574C32.4557 14.4202 33.3337 16.5398 33.3337 18.75ZM29.167 18.75C29.167 19.855 28.728 20.9148 27.9466 21.6962C27.1652 22.4776 26.1054 22.9166 25.0003 22.9166C23.8953 22.9166 22.8354 22.4776 22.054 21.6962C21.2726 20.9148 20.8337 19.855 20.8337 18.75C20.8337 17.6449 21.2726 16.5851 22.054 15.8037C22.8354 15.0223 23.8953 14.5833 25.0003 14.5833C26.1054 14.5833 27.1652 15.0223 27.9466 15.8037C28.728 16.5851 29.167 17.6449 29.167 18.75Z" fill="black"/>
<path fill-rule="evenodd" clip-rule="evenodd" d="M25.0002 2.08331C12.3439 2.08331 2.0835 12.3437 2.0835 25C2.0835 37.6562 12.3439 47.9166 25.0002 47.9166C37.6564 47.9166 47.9168 37.6562 47.9168 25C47.9168 12.3437 37.6564 2.08331 25.0002 2.08331ZM6.25016 25C6.25016 29.3541 7.73558 33.3625 10.2252 36.5458C11.974 34.2502 14.2296 32.3899 16.8161 31.1098C19.4025 29.8298 22.2497 29.1648 25.1356 29.1666C27.9843 29.1633 30.7961 29.8106 33.3567 31.0591C35.9172 32.3076 38.1588 34.1244 39.9106 36.3708C41.7157 34.0033 42.9311 31.24 43.4562 28.3095C43.9813 25.3791 43.8011 22.3657 42.9304 19.5187C42.0597 16.6717 40.5235 14.073 38.4491 11.9376C36.3746 9.80212 33.8215 8.19135 31.001 7.23854C28.1804 6.28573 25.1735 6.01825 22.229 6.45826C19.2846 6.89826 16.4872 8.03309 14.0684 9.76884C11.6496 11.5046 9.67894 13.7914 8.31939 16.44C6.95984 19.0886 6.25054 22.0228 6.25016 25ZM25.0002 43.75C20.6958 43.757 16.5213 42.2762 13.1835 39.5583C14.5268 37.6346 16.3151 36.0639 18.3962 34.9801C20.4772 33.8963 22.7892 33.3313 25.1356 33.3333C27.4526 33.3313 29.7367 33.8822 31.798 34.9402C33.8594 35.9982 35.6385 37.5329 36.9877 39.4166C33.6241 42.2229 29.3807 43.7568 25.0002 43.75Z" fill="black"/>
</svg>
