<svg width="46" height="46" viewBox="0 0 46 46" fill="none" xmlns="http://www.w3.org/2000/svg">
<path d="M8.33333 45.8333H37.5M14.0771 9.91042L18.4979 14.3312M18.4979 14.3312C19.67 13.1591 21.2591 12.5 22.9167 12.5M18.4979 14.3312C17.3258 15.5034 16.6667 17.0924 16.6667 18.75M16.6667 18.75H10.4167M16.6667 18.75C16.6667 20.4076 17.3258 21.9966 18.4979 23.1687M18.4979 23.1687L14.0771 27.5896M18.4979 23.1687C19.67 24.3409 21.2591 25 22.9167 25M22.9167 25V31.25M22.9167 25C24.5743 25 26.1633 24.3409 27.3354 23.1687M27.3354 23.1687L31.7562 27.5896M27.3354 23.1687C28.5075 21.9966 29.1667 20.4076 29.1667 18.75M35.4167 18.75H29.1667M29.1667 18.75C29.1667 17.0924 28.5075 15.5034 27.3354 14.3312M31.7562 9.91042L27.3354 14.3312M27.3354 14.3312C26.1633 13.1591 24.5743 12.5 22.9167 12.5M22.9167 12.5V6.25M0 37.5H45.8333V0H0V37.5ZM14.5833 45.8333H31.25V37.5H14.5833V45.8333Z" stroke="black" stroke-width="2"/>
</svg>
