<svg width="35" height="35" viewBox="0 0 35 35" fill="none" xmlns="http://www.w3.org/2000/svg">
<path d="M23.7482 3.00043e-07C21.9916 -0.000399214 20.2593 0.407285 18.6902 1.19038C17.121 1.97348 15.7586 3.11022 14.7122 4.5095C13.6658 5.90878 12.9644 7.5317 12.6643 9.2482C12.3642 10.9647 12.4737 12.7271 12.984 14.394L0 27.2708V34.7083H7.49944L20.4835 21.8315C22.0307 22.2973 23.6611 22.4268 25.2634 22.2112C26.8656 21.9956 28.4022 21.4399 29.7684 20.5821C31.1346 19.7243 32.2982 18.5844 33.18 17.2403C34.0618 15.8961 34.6411 14.3792 34.8783 12.7929C35.1155 11.2066 35.0051 9.5883 34.5546 8.04817C34.1041 6.50804 33.3242 5.08233 32.2678 3.8682C31.2115 2.65406 29.9037 1.68003 28.4335 1.0125C26.9633 0.344975 25.3652 -0.000371595 23.7482 3.00043e-07ZM23.7482 19.8333C22.8877 19.8331 22.0319 19.707 21.2084 19.459L19.7748 19.0276L18.7161 20.0775L14.7402 24.0206L13.0165 22.3125L11.2492 24.0653L12.9728 25.7747L10.9904 27.7406L9.26681 26.0312L7.49944 27.784L9.22306 29.4934L6.46452 32.2292H2.49981V28.2972L14.7514 16.1468L15.8113 15.0969L15.3764 13.6751C14.8421 11.9285 14.8768 10.0593 15.4755 8.33343C16.0742 6.60754 17.2065 5.11282 18.7112 4.0619C20.2158 3.01098 22.0164 2.45737 23.8566 2.47982C25.6968 2.50228 27.4831 3.09965 28.9612 4.18696C30.4394 5.27428 31.5342 6.79617 32.0899 8.53614C32.6456 10.2761 32.6339 12.1456 32.0565 13.8786C31.4791 15.6116 30.3654 17.1199 28.8738 18.189C27.3822 19.2581 25.5886 19.8335 23.7482 19.8333Z" fill="black"/>
</svg>
