<svg width="50" height="50" viewBox="0 0 50 50" fill="none" xmlns="http://www.w3.org/2000/svg">
<path d="M8.33203 39.5834V20.8334C8.33203 20.1736 8.47995 19.5486 8.77578 18.9584C9.07161 18.3681 9.47925 17.882 9.9987 17.5L22.4987 8.12502C23.2279 7.56946 24.0612 7.29169 24.9987 7.29169C25.9362 7.29169 26.7695 7.56946 27.4987 8.12502L39.9987 17.5C40.5195 17.882 40.9279 18.3681 41.2237 18.9584C41.5195 19.5486 41.6668 20.1736 41.6654 20.8334V39.5834C41.6654 40.7292 41.257 41.7104 40.4404 42.5271C39.6237 43.3438 38.6431 43.7514 37.4987 43.75H31.2487C30.6584 43.75 30.164 43.55 29.7654 43.15C29.3668 42.75 29.1668 42.2556 29.1654 41.6667V31.25C29.1654 30.6597 28.9654 30.1653 28.5654 29.7667C28.1654 29.3681 27.6709 29.1681 27.082 29.1667H22.9154C22.3251 29.1667 21.8306 29.3667 21.432 29.7667C21.0334 30.1667 20.8334 30.6611 20.832 31.25V41.6667C20.832 42.257 20.632 42.7521 20.232 43.1521C19.832 43.5521 19.3376 43.7514 18.7487 43.75H12.4987C11.3529 43.75 10.3723 43.3424 9.55703 42.5271C8.74175 41.7118 8.33342 40.7306 8.33203 39.5834Z" fill="black"/>
</svg>
