<svg width="50" height="50" viewBox="0 0 50 50" fill="none" xmlns="http://www.w3.org/2000/svg">
<path d="M8.33398 39.5834V20.8334C8.33398 20.1737 8.4819 19.5487 8.77773 18.9584C9.07357 18.3681 9.48121 17.882 10.0007 17.5001L22.5007 8.12508C23.2298 7.56953 24.0632 7.29175 25.0007 7.29175C25.9382 7.29175 26.7715 7.56953 27.5007 8.12508L40.0007 17.5001C40.5215 17.882 40.9298 18.3681 41.2257 18.9584C41.5215 19.5487 41.6687 20.1737 41.6673 20.8334V39.5834C41.6673 40.7292 41.259 41.7105 40.4423 42.5272C39.6257 43.3438 38.6451 43.7515 37.5007 43.7501H31.2507C30.6604 43.7501 30.1659 43.5501 29.7673 43.1501C29.3687 42.7501 29.1687 42.2556 29.1673 41.6667V31.2501C29.1673 30.6598 28.9673 30.1654 28.5673 29.7667C28.1673 29.3681 27.6729 29.1681 27.084 29.1667H22.9173C22.327 29.1667 21.8326 29.3667 21.434 29.7667C21.0354 30.1667 20.8354 30.6612 20.834 31.2501V41.6667C20.834 42.257 20.634 42.7522 20.234 43.1522C19.834 43.5522 19.3395 43.7515 18.7507 43.7501H12.5007C11.3548 43.7501 10.3743 43.3424 9.55898 42.5272C8.74371 41.7119 8.33537 40.7306 8.33398 39.5834Z" fill="black"/>
</svg>
