<svg width="50" height="50" viewBox="0 0 50 50" fill="none" xmlns="http://www.w3.org/2000/svg">
<path d="M8.33203 39.5832V20.8332C8.33203 20.1734 8.47995 19.5484 8.77578 18.9582C9.07161 18.3679 9.47925 17.8818 9.9987 17.4998L22.4987 8.12484C23.2279 7.56928 24.0612 7.2915 24.9987 7.2915C25.9362 7.2915 26.7695 7.56928 27.4987 8.12484L39.9987 17.4998C40.5195 17.8818 40.9279 18.3679 41.2237 18.9582C41.5195 19.5484 41.6668 20.1734 41.6654 20.8332V39.5832C41.6654 40.729 41.257 41.7103 40.4404 42.5269C39.6237 43.3436 38.6431 43.7512 37.4987 43.7498H31.2487C30.6584 43.7498 30.164 43.5498 29.7654 43.1498C29.3668 42.7498 29.1668 42.2554 29.1654 41.6665V31.2498C29.1654 30.6596 28.9654 30.1651 28.5654 29.7665C28.1654 29.3679 27.6709 29.1679 27.082 29.1665H22.9154C22.3251 29.1665 21.8306 29.3665 21.432 29.7665C21.0334 30.1665 20.8334 30.6609 20.832 31.2498V41.6665C20.832 42.2568 20.632 42.7519 20.232 43.1519C19.832 43.5519 19.3376 43.7512 18.7487 43.7498H12.4987C11.3529 43.7498 10.3723 43.3422 9.55703 42.5269C8.74175 41.7116 8.33342 40.7304 8.33203 39.5832Z" fill="black"/>
</svg>
