<svg width="50" height="50" viewBox="0 0 50 50" fill="none" xmlns="http://www.w3.org/2000/svg">
<path fill-rule="evenodd" clip-rule="evenodd" d="M33.3337 18.7503C33.3337 20.9605 32.4557 23.0801 30.8929 24.6429C29.3301 26.2057 27.2105 27.0837 25.0003 27.0837C22.7902 27.0837 20.6706 26.2057 19.1078 24.6429C17.545 23.0801 16.667 20.9605 16.667 18.7503C16.667 16.5402 17.545 14.4206 19.1078 12.8578C20.6706 11.295 22.7902 10.417 25.0003 10.417C27.2105 10.417 29.3301 11.295 30.8929 12.8578C32.4557 14.4206 33.3337 16.5402 33.3337 18.7503ZM29.167 18.7503C29.167 19.8554 28.728 20.9152 27.9466 21.6966C27.1652 22.478 26.1054 22.917 25.0003 22.917C23.8953 22.917 22.8354 22.478 22.054 21.6966C21.2726 20.9152 20.8337 19.8554 20.8337 18.7503C20.8337 17.6453 21.2726 16.5854 22.054 15.804C22.8354 15.0226 23.8953 14.5837 25.0003 14.5837C26.1054 14.5837 27.1652 15.0226 27.9466 15.804C28.728 16.5854 29.167 17.6453 29.167 18.7503Z" fill="black"/>
<path fill-rule="evenodd" clip-rule="evenodd" d="M25.0002 2.0835C12.3439 2.0835 2.0835 12.3439 2.0835 25.0002C2.0835 37.6564 12.3439 47.9168 25.0002 47.9168C37.6564 47.9168 47.9168 37.6564 47.9168 25.0002C47.9168 12.3439 37.6564 2.0835 25.0002 2.0835ZM6.25016 25.0002C6.25016 29.3543 7.73558 33.3627 10.2252 36.546C11.974 34.2504 14.2296 32.39 16.8161 31.11C19.4025 29.83 22.2497 29.165 25.1356 29.1668C27.9843 29.1635 30.7961 29.8108 33.3567 31.0593C35.9172 32.3078 38.1588 34.1245 39.9106 36.371C41.7157 34.0035 42.9311 31.2402 43.4562 28.3097C43.9813 25.3793 43.8011 22.3659 42.9304 19.5189C42.0597 16.6719 40.5235 14.0732 38.4491 11.9377C36.3746 9.8023 33.8215 8.19154 31.001 7.23872C28.1804 6.28591 25.1735 6.01844 22.229 6.45844C19.2846 6.89844 16.4872 8.03327 14.0684 9.76902C11.6496 11.5048 9.67894 13.7916 8.31939 16.4402C6.95984 19.0887 6.25054 22.023 6.25016 25.0002ZM25.0002 43.7502C20.6958 43.7571 16.5213 42.2763 13.1835 39.5585C14.5268 37.6348 16.3151 36.0641 18.3962 34.9803C20.4772 33.8964 22.7892 33.3315 25.1356 33.3335C27.4526 33.3315 29.7367 33.8824 31.798 34.9404C33.8594 35.9984 35.6385 37.5331 36.9877 39.4168C33.6241 42.2231 29.3807 43.757 25.0002 43.7502Z" fill="black"/>
</svg>
