<svg width="50" height="50" viewBox="0 0 50 50" fill="none" xmlns="http://www.w3.org/2000/svg">
<path d="M8.33301 39.5833V20.8333C8.33301 20.1736 8.48092 19.5486 8.77676 18.9583C9.07259 18.368 9.48023 17.8819 9.99967 17.5L22.4997 8.12499C23.2288 7.56943 24.0622 7.29166 24.9997 7.29166C25.9372 7.29166 26.7705 7.56943 27.4997 8.12499L39.9997 17.5C40.5205 17.8819 40.9288 18.368 41.2247 18.9583C41.5205 19.5486 41.6677 20.1736 41.6663 20.8333V39.5833C41.6663 40.7292 41.258 41.7104 40.4413 42.5271C39.6247 43.3437 38.6441 43.7514 37.4997 43.75H31.2497C30.6594 43.75 30.165 43.55 29.7663 43.15C29.3677 42.75 29.1677 42.2555 29.1663 41.6667V31.25C29.1663 30.6597 28.9663 30.1653 28.5663 29.7667C28.1663 29.368 27.6719 29.168 27.083 29.1667H22.9163C22.3261 29.1667 21.8316 29.3667 21.433 29.7667C21.0344 30.1667 20.8344 30.6611 20.833 31.25V41.6667C20.833 42.2569 20.633 42.7521 20.233 43.1521C19.833 43.5521 19.3386 43.7514 18.7497 43.75H12.4997C11.3538 43.75 10.3733 43.3424 9.55801 42.5271C8.74273 41.7118 8.3344 40.7305 8.33301 39.5833Z" fill="black"/>
</svg>
