<svg width="35" height="42" viewBox="0 0 35 42" fill="none" xmlns="http://www.w3.org/2000/svg">
<path d="M23.7482 3.63078e-07C21.9916 -0.000483083 20.2593 0.492849 18.6902 1.44046C17.121 2.38808 15.7586 3.76363 14.7122 5.45687C13.6658 7.15012 12.9644 9.11399 12.6643 11.1911C12.3642 13.2682 12.4737 15.4008 12.984 17.418L0 33V42H7.49944L20.4835 26.418C22.0307 26.9816 23.6611 27.1383 25.2634 26.8774C26.8656 26.6165 28.4022 25.9441 29.7684 24.9061C31.1346 23.868 32.2982 22.4887 33.18 20.8622C34.0618 19.2356 34.6411 17.4 34.8783 15.4805C35.1155 13.561 35.0051 11.6026 34.5546 9.73897C34.1041 7.87528 33.3242 6.15005 32.2678 4.68084C31.2115 3.21163 29.9037 2.03298 28.4335 1.22522C26.9633 0.417449 25.3652 -0.000449661 23.7482 3.63078e-07ZM23.7482 24C22.8877 23.9997 22.0319 23.8471 21.2084 23.547L19.7748 23.025L18.7161 24.2955L14.7402 29.067L13.0165 27L11.2492 29.121L12.9728 31.1895L10.9904 33.5685L9.26681 31.5L7.49944 33.621L9.22306 35.6895L6.46452 39H2.49981V34.242L14.7514 19.539L15.8113 18.2685L15.3764 16.548C14.8421 14.4345 14.8768 12.1726 15.4755 10.0841C16.0742 7.99567 17.2065 6.18694 18.7112 4.91524C20.2158 3.64354 22.0164 2.97362 23.8566 3.00079C25.6968 3.02797 27.4831 3.75083 28.9612 5.06658C30.4394 6.38232 31.5342 8.22393 32.0899 10.3295C32.6456 12.435 32.6339 14.6972 32.0565 16.7943C31.4791 18.8914 30.3654 20.7166 28.8738 22.0102C27.3822 23.3039 25.5886 24.0002 23.7482 24Z" fill="black"/>
</svg>
