<svg width="50" height="50" viewBox="0 0 50 50" fill="none" xmlns="http://www.w3.org/2000/svg">
<path d="M8.33398 39.5832V20.8332C8.33398 20.1734 8.4819 19.5484 8.77773 18.9582C9.07357 18.3679 9.48121 17.8818 10.0007 17.4998L22.5007 8.12484C23.2298 7.56928 24.0632 7.2915 25.0007 7.2915C25.9382 7.2915 26.7715 7.56928 27.5007 8.12484L40.0007 17.4998C40.5215 17.8818 40.9298 18.3679 41.2257 18.9582C41.5215 19.5484 41.6687 20.1734 41.6673 20.8332V39.5832C41.6673 40.729 41.259 41.7103 40.4423 42.5269C39.6257 43.3436 38.6451 43.7512 37.5007 43.7498H31.2507C30.6604 43.7498 30.1659 43.5498 29.7673 43.1498C29.3687 42.7498 29.1687 42.2554 29.1673 41.6665V31.2498C29.1673 30.6596 28.9673 30.1651 28.5673 29.7665C28.1673 29.3679 27.6729 29.1679 27.084 29.1665H22.9173C22.327 29.1665 21.8326 29.3665 21.434 29.7665C21.0354 30.1665 20.8354 30.6609 20.834 31.2498V41.6665C20.834 42.2568 20.634 42.7519 20.234 43.1519C19.834 43.5519 19.3395 43.7512 18.7507 43.7498H12.5007C11.3548 43.7498 10.3743 43.3422 9.55898 42.5269C8.74371 41.7116 8.33537 40.7304 8.33398 39.5832Z" fill="black"/>
</svg>
