<svg width="50" height="50" viewBox="0 0 50 50" fill="none" xmlns="http://www.w3.org/2000/svg">
<path d="M8.33203 39.5834V20.8334C8.33203 20.1737 8.47995 19.5487 8.77578 18.9584C9.07161 18.3681 9.47925 17.882 9.9987 17.5001L22.4987 8.12508C23.2279 7.56953 24.0612 7.29175 24.9987 7.29175C25.9362 7.29175 26.7695 7.56953 27.4987 8.12508L39.9987 17.5001C40.5195 17.882 40.9279 18.3681 41.2237 18.9584C41.5195 19.5487 41.6668 20.1737 41.6654 20.8334V39.5834C41.6654 40.7292 41.257 41.7105 40.4404 42.5272C39.6237 43.3438 38.6431 43.7515 37.4987 43.7501H31.2487C30.6584 43.7501 30.164 43.5501 29.7654 43.1501C29.3668 42.7501 29.1668 42.2556 29.1654 41.6667V31.2501C29.1654 30.6598 28.9654 30.1654 28.5654 29.7667C28.1654 29.3681 27.6709 29.1681 27.082 29.1667H22.9154C22.3251 29.1667 21.8306 29.3667 21.432 29.7667C21.0334 30.1667 20.8334 30.6612 20.832 31.2501V41.6667C20.832 42.257 20.632 42.7522 20.232 43.1522C19.832 43.5522 19.3376 43.7515 18.7487 43.7501H12.4987C11.3529 43.7501 10.3723 43.3424 9.55703 42.5272C8.74175 41.7119 8.33342 40.7306 8.33203 39.5834Z" fill="black"/>
</svg>
