<svg width="50" height="50" viewBox="0 0 50 50" fill="none" xmlns="http://www.w3.org/2000/svg">
<path d="M18.7503 27.0833C23.3527 27.0833 27.0837 23.3523 27.0837 18.75C27.0837 14.1476 23.3527 10.4166 18.7503 10.4166C14.148 10.4166 10.417 14.1476 10.417 18.75C10.417 23.3523 14.148 27.0833 18.7503 27.0833Z" fill="black" stroke="black" stroke-width="2" stroke-linecap="round" stroke-linejoin="round"/>
<path d="M18.7503 27.0833C10.6962 27.0833 4.16699 32.6791 4.16699 39.5833H33.3337C33.3337 32.6791 26.8045 27.0833 18.7503 27.0833Z" fill="black" stroke="black" stroke-width="2" stroke-linecap="round" stroke-linejoin="round"/>
<path d="M31.25 27.0833C32.6425 27.0832 34.0127 26.7342 35.2356 26.0682C36.4584 25.4021 37.4949 24.4402 38.2502 23.2705C39.0056 22.1007 39.4558 20.7602 39.5597 19.3717C39.6635 17.9831 39.4178 16.5906 38.8449 15.3214C38.272 14.0523 37.3902 12.9469 36.2801 12.1063C35.1699 11.2657 33.8669 10.7167 32.4899 10.5095C31.113 10.3022 29.706 10.4433 28.3976 10.9198C27.0892 11.3964 25.9211 12.1932 25 13.2375M31.25 27.0833C29.5688 27.0833 26.8688 26.4729 25 24.5104M31.25 27.0833C39.3042 27.0833 45.8333 32.6791 45.8333 39.5833H33.3333" stroke="black" stroke-width="2" stroke-linecap="round" stroke-linejoin="round"/>
</svg>
