<svg width="48" height="48" viewBox="0 0 48 48" fill="none" xmlns="http://www.w3.org/2000/svg">
<path d="M23.9999 4C20.2868 4 16.7259 5.475 14.1004 8.1005C11.4749 10.726 9.99986 14.287 9.99986 18V25.056C10.0002 25.3663 9.92826 25.6723 9.78986 25.95L6.35586 32.816C6.18811 33.1514 6.1089 33.5242 6.12576 33.8989C6.14261 34.2735 6.25497 34.6377 6.45215 34.9567C6.64934 35.2757 6.92481 35.539 7.25239 35.7216C7.57998 35.9042 7.94882 36.0001 8.32386 36H39.6759C40.0509 36.0001 40.4197 35.9042 40.7473 35.7216C41.0749 35.539 41.3504 35.2757 41.5476 34.9567C41.7448 34.6377 41.8571 34.2735 41.874 33.8989C41.8908 33.5242 41.8116 33.1514 41.6439 32.816L38.2119 25.95C38.0728 25.6725 38.0002 25.3664 37.9999 25.056V18C37.9999 14.287 36.5249 10.726 33.8994 8.1005C31.2738 5.475 27.7129 4 23.9999 4ZM23.9999 42C22.7586 42.0007 21.5476 41.6163 20.5339 40.8999C19.5202 40.1835 18.7536 39.1703 18.3399 38H29.6599C29.2461 39.1703 28.4795 40.1835 27.4658 40.8999C26.4521 41.6163 25.2412 42.0007 23.9999 42Z" fill="black"/>
</svg>
