<svg width="35" height="35" viewBox="0 0 35 35" fill="none" xmlns="http://www.w3.org/2000/svg">
<path d="M17.5011 22.6043C16.1474 22.6043 14.8491 22.0665 13.8919 21.1093C12.9347 20.1521 12.3969 18.8538 12.3969 17.5001C12.3969 16.1464 12.9347 14.8481 13.8919 13.8909C14.8491 12.9337 16.1474 12.3959 17.5011 12.3959C18.8548 12.3959 20.1531 12.9337 21.1103 13.8909C22.0675 14.8481 22.6053 16.1464 22.6053 17.5001C22.6053 18.8538 22.0675 20.1521 21.1103 21.1093C20.1531 22.0665 18.8548 22.6043 17.5011 22.6043ZM28.3365 18.9147C28.3949 18.448 28.4386 17.9813 28.4386 17.5001C28.4386 17.0188 28.3949 16.5376 28.3365 16.0418L31.4136 13.6647C31.6907 13.4459 31.7636 13.0522 31.5886 12.7313L28.6719 7.6855C28.4969 7.36467 28.1032 7.23342 27.7824 7.36467L24.1511 8.823C23.3928 8.25425 22.6053 7.75842 21.6865 7.39383L21.1469 3.52925C21.1173 3.35748 21.0278 3.20175 20.8944 3.08964C20.7609 2.97753 20.5921 2.91628 20.4178 2.91675H14.5844C14.2199 2.91675 13.9136 3.17925 13.8553 3.52925L13.3157 7.39383C12.3969 7.75842 11.6094 8.25425 10.8511 8.823L7.21986 7.36467C6.89902 7.23342 6.50528 7.36467 6.33028 7.6855L3.41361 12.7313C3.22403 13.0522 3.31153 13.4459 3.58861 13.6647L6.66569 16.0418C6.60736 16.5376 6.56361 17.0188 6.56361 17.5001C6.56361 17.9813 6.60736 18.448 6.66569 18.9147L3.58861 21.3355C3.31153 21.5543 3.22403 21.948 3.41361 22.2688L6.33028 27.3147C6.50528 27.6355 6.89902 27.7522 7.21986 27.6355L10.8511 26.1626C11.6094 26.7459 12.3969 27.2418 13.3157 27.6063L13.8553 31.4709C13.9136 31.8209 14.2199 32.0834 14.5844 32.0834H20.4178C20.7824 32.0834 21.0886 31.8209 21.1469 31.4709L21.6865 27.6063C22.6053 27.2272 23.3928 26.7459 24.1511 26.1626L27.7824 27.6355C28.1032 27.7522 28.4969 27.6355 28.6719 27.3147L31.5886 22.2688C31.7636 21.948 31.6907 21.5543 31.4136 21.3355L28.3365 18.9147Z" fill="black"/>
</svg>
