<svg width="46" height="46" viewBox="0 0 46 46" fill="none" xmlns="http://www.w3.org/2000/svg">
<path fill-rule="evenodd" clip-rule="evenodd" d="M31.2487 16.6666C31.2487 18.8768 30.3707 20.9964 28.8079 22.5592C27.2451 24.122 25.1255 25 22.9154 25C20.7052 25 18.5856 24.122 17.0228 22.5592C15.46 20.9964 14.582 18.8768 14.582 16.6666C14.582 14.4565 15.46 12.3369 17.0228 10.7741C18.5856 9.21129 20.7052 8.33331 22.9154 8.33331C25.1255 8.33331 27.2451 9.21129 28.8079 10.7741C30.3707 12.3369 31.2487 14.4565 31.2487 16.6666ZM27.082 16.6666C27.082 17.7717 26.643 18.8315 25.8616 19.6129C25.0802 20.3943 24.0204 20.8333 22.9154 20.8333C21.8103 20.8333 20.7505 20.3943 19.9691 19.6129C19.1877 18.8315 18.7487 17.7717 18.7487 16.6666C18.7487 15.5616 19.1877 14.5018 19.9691 13.7204C20.7505 12.939 21.8103 12.5 22.9154 12.5C24.0204 12.5 25.0802 12.939 25.8616 13.7204C26.643 14.5018 27.082 15.5616 27.082 16.6666Z" fill="black"/>
<path fill-rule="evenodd" clip-rule="evenodd" d="M22.9167 0C10.2604 0 0 10.2604 0 22.9167C0 35.5729 10.2604 45.8333 22.9167 45.8333C35.5729 45.8333 45.8333 35.5729 45.8333 22.9167C45.8333 10.2604 35.5729 0 22.9167 0ZM4.16667 22.9167C4.16667 27.2708 5.65208 31.2792 8.14167 34.4625C9.8905 32.1669 12.1462 30.3065 14.7326 29.0265C17.319 27.7465 20.1662 27.0815 23.0521 27.0833C25.9008 27.08 28.7126 27.7273 31.2732 28.9758C33.8337 30.2243 36.0753 32.041 37.8271 34.2875C39.6322 31.92 40.8476 29.1567 41.3727 26.2262C41.8978 23.2958 41.7176 20.2824 40.8469 17.4354C39.9762 14.5884 38.44 11.9897 36.3656 9.85424C34.2911 7.71881 31.738 6.10804 28.9175 5.15523C26.0969 4.20241 23.09 3.93494 20.1455 4.37494C17.2011 4.81495 14.4037 5.94977 11.9849 7.68553C9.56614 9.42128 7.59544 11.7081 6.23589 14.3567C4.87635 17.0053 4.16704 19.9395 4.16667 22.9167ZM22.9167 41.6667C18.6123 41.6736 14.4378 40.1928 11.1 37.475C12.4434 35.5513 14.2317 33.9806 16.3127 32.8968C18.3937 31.8129 20.7057 31.248 23.0521 31.25C25.3691 31.248 27.6532 31.7989 29.7146 32.8569C31.7759 33.9149 33.555 35.4496 34.9042 37.3333C31.5406 40.1396 27.2972 41.6735 22.9167 41.6667Z" fill="black"/>
</svg>
