<svg width="50" height="50" viewBox="0 0 50 50" fill="none" xmlns="http://www.w3.org/2000/svg">
<path d="M10.4168 47.9167H39.5835M16.1606 11.9937L20.5814 16.4146M20.5814 16.4146C21.7535 15.2425 23.3426 14.5833 25.0002 14.5833M20.5814 16.4146C19.4093 17.5867 18.7502 19.1757 18.7502 20.8333M18.7502 20.8333H12.5002M18.7502 20.8333C18.7502 22.4909 19.4093 24.08 20.5814 25.2521M20.5814 25.2521L16.1606 29.6729M20.5814 25.2521C21.7535 26.4242 23.3426 27.0833 25.0002 27.0833M25.0002 27.0833V33.3333M25.0002 27.0833C26.6578 27.0833 28.2468 26.4242 29.4189 25.2521M29.4189 25.2521L33.8397 29.6729M29.4189 25.2521C30.591 24.08 31.2502 22.4909 31.2502 20.8333M37.5002 20.8333H31.2502M31.2502 20.8333C31.2502 19.1757 30.591 17.5867 29.4189 16.4146M33.8397 11.9937L29.4189 16.4146M29.4189 16.4146C28.2468 15.2425 26.6578 14.5833 25.0002 14.5833M25.0002 14.5833V8.33333M2.0835 39.5833H47.9168V2.08333H2.0835V39.5833ZM16.6668 47.9167H33.3335V39.5833H16.6668V47.9167Z" stroke="black" stroke-width="2"/>
</svg>
