<svg width="53" height="53" viewBox="0 0 53 53" fill="none" xmlns="http://www.w3.org/2000/svg">
<g clip-path="url(#clip0_36_1068)">
<path d="M43.0625 6.625H9.9375C9.05897 6.625 8.21642 6.97399 7.59521 7.59521C6.97399 8.21642 6.625 9.05897 6.625 9.9375V43.0625C6.625 43.941 6.97399 44.7836 7.59521 45.4048C8.21642 46.026 9.05897 46.375 9.9375 46.375H43.0625C43.941 46.375 44.7836 46.026 45.4048 45.4048C46.026 44.7836 46.375 43.941 46.375 43.0625V9.9375C46.375 9.05897 46.026 8.21642 45.4048 7.59521C44.7836 6.97399 43.941 6.625 43.0625 6.625ZM9.9375 43.0625V9.9375H43.0625V43.0625H9.9375Z" fill="black"/>
</g>
<defs>
<clipPath id="clip0_36_1068">
<rect width="53" height="53" fill="white"/>
</clipPath>
</defs>
</svg>
